<?xml version="1.0" encoding="UTF-8" standalone="no"?>
<!-- Created with Inkscape (http://www.inkscape.org/) -->

<svg
   width="180mm"
   height="180mm"
   viewBox="0 0 180 180"
   version="1.1"
   id="svg5"
   sodipodi:docname="coins.svg"
   inkscape:version="1.1.2 (b8e25be833, 2022-02-05)"
   xmlns:inkscape="http://www.inkscape.org/namespaces/inkscape"
   xmlns:sodipodi="http://sodipodi.sourceforge.net/DTD/sodipodi-0.dtd"
   xmlns="http://www.w3.org/2000/svg"
   xmlns:svg="http://www.w3.org/2000/svg">
  <sodipodi:namedview
     id="namedview7"
     pagecolor="#505050"
     bordercolor="#eeeeee"
     borderopacity="1"
     inkscape:pageshadow="0"
     inkscape:pageopacity="0"
     inkscape:pagecheckerboard="0"
     inkscape:document-units="mm"
     showgrid="false"
     width="169.914mm"
     inkscape:zoom="0.23563061"
     inkscape:cx="719.34626"
     inkscape:cy="861.51794"
     inkscape:window-width="1366"
     inkscape:window-height="715"
     inkscape:window-x="-8"
     inkscape:window-y="-8"
     inkscape:window-maximized="1"
     inkscape:current-layer="layer1"
     inkscape:object-paths="false"
     inkscape:snap-intersection-paths="false"
     inkscape:snap-smooth-nodes="false" />
  <defs
     id="defs2">
    <inkscape:path-effect
       effect="skeletal"
       id="path-effect1111"
       is_visible="true"
       lpeversion="1"
       pattern="m 26.387524,91.453386 c 0,-2.75566 2.236478,-4.992138 4.992138,-4.992138 2.75566,0 4.992138,2.236478 4.992138,4.992138 0,2.75566 -2.236478,4.992138 -4.992138,4.992138 -2.75566,0 -4.992138,-2.236478 -4.992138,-4.992138 z"
       copytype="single_stretched"
       prop_scale="0.333812"
       scale_y_rel="false"
       spacing="0"
       normal_offset="0"
       tang_offset="0"
       prop_units="false"
       vertical_pattern="false"
       hide_knot="false"
       fuse_tolerance="0" />
  </defs>
  <g
     inkscape:label="Layer 1"
     inkscape:groupmode="layer"
     id="layer1">
    <circle
       style="fill:#ffeeaa;fill-opacity:1;stroke:none;stroke-width:14.9527;stroke-linecap:round;stroke-linejoin:round;stroke-miterlimit:4;stroke-dasharray:none;paint-order:stroke markers fill"
       id="path1562"
       cx="90"
       cy="90"
       r="84.957077" />
    <g
       id="g5268"
       transform="matrix(0.82527128,0,0,0.82527128,-91.882322,-48.304097)">
      <g
         id="g5134"
         transform="matrix(0.70105527,-0.40475445,0.40475445,0.70105527,-65.034743,141.76145)">
        <g
           id="g5118">
          <path
             style="color:#000000;fill:#806600;stroke-linecap:round;stroke-linejoin:round;-inkscape-stroke:none;paint-order:stroke markers fill"
             d="m 227.94336,176.06836 c -14.35485,0.003 -27.4853,2.99138 -35.26367,8.34375 h -4.59961 a 1.9845734,1.9845734 0 0 0 -1.98438,1.98437 v 7.9375 c -1e-5,2.90445 1.46325,5.56677 3.74024,7.76563 2.27699,2.19886 5.39956,4.04398 9.16992,5.58398 7.54072,3.08001 17.71086,4.91604 28.9375,4.91602 11.22664,2e-5 21.39678,-1.83601 28.9375,-4.91602 3.77036,-1.54 6.89293,-3.38512 9.16992,-5.58398 2.27699,-2.19886 3.73829,-4.86118 3.73828,-7.76563 v -7.9375 a 1.9845734,1.9845734 0 0 0 -1.98437,-1.98437 h -4.58399 c -7.78133,-5.3544 -20.91703,-8.34343 -35.27734,-8.34375 z m 0,3.96875 c 14.15295,3.2e-4 27.23533,3.28244 33.63086,7.96094 a 1.9845734,1.9845734 0 0 0 1.17187,0.38281 h 3.07422 v 5.95312 c 10e-6,1.59163 -0.76811,3.21319 -2.52539,4.91016 -1.75727,1.69698 -4.47275,3.35922 -7.91601,4.76563 -6.88654,2.8128 -16.64695,4.62111 -27.43555,4.62109 -10.7886,2e-5 -20.55096,-1.80829 -27.4375,-4.62109 -3.44327,-1.40641 -6.15679,-3.06865 -7.91406,-4.76563 -1.75728,-1.69697 -2.52735,-3.31853 -2.52735,-4.91016 v -5.95312 h 3.0918 a 1.9845734,1.9845734 0 0 0 1.17188,-0.38281 c 6.39314,-4.67676 19.46754,-7.95845 33.61523,-7.96094 z"
             id="path5114" />
          <path
             style="color:#000000;fill:#aa8800;stroke-width:3.96875;stroke-linecap:round;stroke-linejoin:round;-inkscape-stroke:none;paint-order:stroke markers fill"
             d="m 227.94319,178.05269 a 39.862003,16.281664 0 0 0 -34.78702,8.3442 h -5.07515 v 7.9375 a 39.862003,16.281664 0 0 0 39.86217,16.28169 39.862003,16.281664 0 0 0 39.86216,-16.28169 v -7.9375 h -5.06015 a 39.862003,16.281664 0 0 0 -34.80201,-8.3442 z"
             id="path5116" />
        </g>
        <g
           id="g5124"
           transform="rotate(-90)">
          <path
             style="color:#000000;fill:#806600;stroke-linecap:round;stroke-linejoin:round;-inkscape-stroke:none;paint-order:stroke markers fill"
             d="m -186.39648,186.09766 c -2.90443,0 -5.56678,1.4613 -7.76563,3.73828 -2.19885,2.27698 -4.04398,5.39958 -5.58398,9.16992 -3.08,7.54069 -4.91602,17.7109 -4.91602,28.9375 0,11.2266 1.83602,21.39681 4.91602,28.9375 1.54,3.77034 3.38513,6.89294 5.58398,9.16992 2.19885,2.27698 4.8612,3.73828 7.76563,3.73828 2.90443,0 5.56482,-1.4613 7.76367,-3.73828 2.19885,-2.27698 4.04594,-5.39958 5.58593,-9.16992 3.08,-7.54069 4.91602,-17.7109 4.91602,-28.9375 0,-11.2266 -1.83602,-21.39681 -4.91602,-28.9375 -1.53999,-3.77034 -3.38708,-6.89294 -5.58593,-9.16992 -2.19885,-2.27698 -4.85924,-3.73828 -7.76367,-3.73828 z m 0,3.96875 c 1.59162,0 3.21318,0.76812 4.91015,2.52539 1.69697,1.75726 3.35923,4.47276 4.76563,7.91601 2.81279,6.88651 4.62109,16.64699 4.62109,27.43555 0,10.78856 -1.8083,20.54904 -4.62109,27.43555 -1.4064,3.44325 -3.06866,6.15874 -4.76563,7.91601 -1.69697,1.75727 -3.31853,2.52539 -4.91015,2.52539 -1.59163,0 -3.21319,-0.76812 -4.91016,-2.52539 -1.69697,-1.75727 -3.35923,-4.47276 -4.76563,-7.91601 -2.81279,-6.88651 -4.62109,-16.64699 -4.62109,-27.43555 0,-10.78856 1.8083,-20.54904 4.62109,-27.43555 1.4064,-3.44325 3.06866,-6.15875 4.76563,-7.91601 1.69697,-1.75727 3.31853,-2.52539 4.91016,-2.52539 z"
             id="path5120" />
          <path
             style="color:#000000;fill:#ffdd55;stroke-width:3.96875;stroke-linecap:round;stroke-linejoin:round;-inkscape-stroke:none;paint-order:stroke markers fill"
             d="m -170.11531,227.94327 a 16.281664,39.862003 0 0 1 -16.28166,39.862 16.281664,39.862003 0 0 1 -16.28167,-39.862 16.281664,39.862003 0 0 1 16.28167,-39.86201 16.281664,39.862003 0 0 1 16.28166,39.86201 z"
             id="path5122" />
        </g>
        <path
           id="path5126"
           style="fill:#806600;fill-opacity:1;stroke:none;stroke-width:75.0002;stroke-linecap:round;stroke-linejoin:round;stroke-miterlimit:4;stroke-dasharray:none;stroke-opacity:1;paint-order:stroke markers fill"
           d="m 730.03906,734.49414 v 30.00195 a 150.65954,61.536998 0 0 0 5.30469,3.58985 v -30.00196 a 150.65954,61.536996 0 0 1 -5.30469,-3.58984 z m 12,7.48242 v 30 a 150.65954,61.536998 0 0 0 5.30469,2.64063 v -30 a 150.65954,61.536996 0 0 1 -5.30469,-2.64063 z m 10,4.74414 v 30 a 150.65954,61.536998 0 0 0 5.30469,2.1875 v -30 a 150.65954,61.536996 0 0 1 -5.30469,-2.1875 z m 10,3.98242 v 30 a 150.65954,61.536998 0 0 0 5.30469,1.78516 v -30 a 150.65954,61.536996 0 0 1 -5.30469,-1.78516 z m 14,4.43555 v 30 a 150.65954,61.536998 0 0 0 5.30469,1.41602 v -30 a 150.65954,61.536996 0 0 1 -5.30469,-1.41602 z m 12,3.05078 v 30 a 150.65954,61.536998 0 0 0 5.30469,1.15821 v -30 a 150.65954,61.536996 0 0 1 -5.30469,-1.15821 z m 12,2.44922 v 30 a 150.65954,61.536998 0 0 0 5.30469,0.9336 v -30 a 150.65954,61.536996 0 0 1 -5.30469,-0.9336 z m 12,1.96289 v 30 a 150.65954,61.536998 0 0 0 5.30469,0.68946 v -30 a 150.65954,61.536996 0 0 1 -5.30469,-0.68946 z m 10,1.27149 v 29.99804 a 150.65954,61.536998 0 0 0 5.30469,0.51953 v -29.99804 a 150.65954,61.536996 0 0 1 -5.30469,-0.51953 z m 11.99805,1.10351 v 30 a 150.65954,61.536998 0 0 0 5.30664,0.35742 v -30 a 150.65954,61.536996 0 0 1 -5.30664,-0.35742 z m 14,0.77539 v 30 a 150.65954,61.536998 0 0 0 5.30469,0.16797 v -30 a 150.65954,61.536996 0 0 1 -5.30469,-0.16797 z"
           transform="scale(0.26458333)" />
        <g
           id="g5132"
           transform="rotate(-90)">
          <path
             style="color:#000000;fill:#806600;stroke-linecap:round;stroke-linejoin:round;-inkscape-stroke:none;paint-order:stroke markers fill"
             d="m -184.01172,203.72852 c -1.91007,0 -3.6237,0.96876 -4.96094,2.35351 -1.33723,1.38476 -2.40655,3.21762 -3.29492,5.39258 -1.77673,4.34992 -2.80664,10.1111 -2.80664,16.46875 0,6.35765 1.02991,12.11883 2.80664,16.46875 0.88837,2.17496 1.95769,4.00782 3.29492,5.39258 1.33724,1.38475 3.05087,2.35351 4.96094,2.35351 1.91007,0 3.62565,-0.96876 4.96289,-2.35351 1.33724,-1.38476 2.40656,-3.21762 3.29492,-5.39258 1.77673,-4.34992 2.80664,-10.1111 2.80664,-16.46875 0,-6.35765 -1.02991,-12.11883 -2.80664,-16.46875 -0.88836,-2.17496 -1.95768,-4.00782 -3.29492,-5.39258 -1.33724,-1.38475 -3.05282,-2.35351 -4.96289,-2.35351 z m 0,3.96875 c 0.59726,0 1.27207,0.27558 2.10742,1.14062 0.83536,0.86504 1.7218,2.28885 2.47657,4.13672 1.50952,3.69574 2.51171,9.04913 2.51171,14.96875 0,5.91962 -1.00219,11.27301 -2.51171,14.96875 -0.75477,1.84787 -1.64121,3.27168 -2.47657,4.13672 -0.83535,0.86504 -1.51016,1.14062 -2.10742,1.14062 -0.59726,0 -1.27011,-0.27558 -2.10547,-1.14062 -0.83535,-0.86504 -1.7218,-2.28885 -2.47656,-4.13672 -1.50953,-3.69574 -2.51172,-9.04913 -2.51172,-14.96875 0,-5.91962 1.00219,-11.27301 2.51172,-14.96875 0.75476,-1.84787 1.64121,-3.27168 2.47656,-4.13672 0.83536,-0.86504 1.50821,-1.14062 2.10547,-1.14062 z"
             id="path5128" />
          <path
             style="color:#000000;fill:#d4aa00;stroke-width:3.96875;stroke-linecap:round;stroke-linejoin:round;-inkscape-stroke:none;paint-order:stroke markers fill"
             d="m -174.93101,227.94327 a 9.0798559,22.229988 0 0 1 -9.07985,22.22999 9.0798559,22.229988 0 0 1 -9.07986,-22.22999 9.0798559,22.229988 0 0 1 9.07986,-22.22999 9.0798559,22.229988 0 0 1 9.07985,22.22999 z"
             id="path5130" />
        </g>
      </g>
      <g
         id="g4812"
         transform="matrix(0.8095089,0,0,0.8095089,30.157908,36.262884)">
        <g
           id="ellipse3891">
          <path
             style="color:#000000;fill:#806600;stroke-linecap:round;stroke-linejoin:round;-inkscape-stroke:none;paint-order:stroke markers fill"
             d="m 227.94336,176.06836 c -14.35485,0.003 -27.4853,2.99138 -35.26367,8.34375 h -4.59961 a 1.9845734,1.9845734 0 0 0 -1.98438,1.98437 v 7.9375 c -1e-5,2.90445 1.46325,5.56677 3.74024,7.76563 2.27699,2.19886 5.39956,4.04398 9.16992,5.58398 7.54072,3.08001 17.71086,4.91604 28.9375,4.91602 11.22664,2e-5 21.39678,-1.83601 28.9375,-4.91602 3.77036,-1.54 6.89293,-3.38512 9.16992,-5.58398 2.27699,-2.19886 3.73829,-4.86118 3.73828,-7.76563 v -7.9375 a 1.9845734,1.9845734 0 0 0 -1.98437,-1.98437 h -4.58399 c -7.78133,-5.3544 -20.91703,-8.34343 -35.27734,-8.34375 z m 0,3.96875 c 14.15295,3.2e-4 27.23533,3.28244 33.63086,7.96094 a 1.9845734,1.9845734 0 0 0 1.17187,0.38281 h 3.07422 v 5.95312 c 10e-6,1.59163 -0.76811,3.21319 -2.52539,4.91016 -1.75727,1.69698 -4.47275,3.35922 -7.91601,4.76563 -6.88654,2.8128 -16.64695,4.62111 -27.43555,4.62109 -10.7886,2e-5 -20.55096,-1.80829 -27.4375,-4.62109 -3.44327,-1.40641 -6.15679,-3.06865 -7.91406,-4.76563 -1.75728,-1.69697 -2.52735,-3.31853 -2.52735,-4.91016 v -5.95312 h 3.0918 a 1.9845734,1.9845734 0 0 0 1.17188,-0.38281 c 6.39314,-4.67676 19.46754,-7.95845 33.61523,-7.96094 z"
             id="path4679" />
          <path
             style="color:#000000;fill:#aa8800;stroke-width:3.96875;stroke-linecap:round;stroke-linejoin:round;-inkscape-stroke:none;paint-order:stroke markers fill"
             d="m 227.94319,178.05269 a 39.862003,16.281664 0 0 0 -34.78702,8.3442 h -5.07515 v 7.9375 a 39.862003,16.281664 0 0 0 39.86217,16.28169 39.862003,16.281664 0 0 0 39.86216,-16.28169 v -7.9375 h -5.06015 a 39.862003,16.281664 0 0 0 -34.80201,-8.3442 z"
             id="path4676" />
        </g>
        <g
           id="path3687"
           transform="rotate(-90)">
          <path
             style="color:#000000;fill:#806600;stroke-linecap:round;stroke-linejoin:round;-inkscape-stroke:none;paint-order:stroke markers fill"
             d="m -186.39648,186.09766 c -2.90443,0 -5.56678,1.4613 -7.76563,3.73828 -2.19885,2.27698 -4.04398,5.39958 -5.58398,9.16992 -3.08,7.54069 -4.91602,17.7109 -4.91602,28.9375 0,11.2266 1.83602,21.39681 4.91602,28.9375 1.54,3.77034 3.38513,6.89294 5.58398,9.16992 2.19885,2.27698 4.8612,3.73828 7.76563,3.73828 2.90443,0 5.56482,-1.4613 7.76367,-3.73828 2.19885,-2.27698 4.04594,-5.39958 5.58593,-9.16992 3.08,-7.54069 4.91602,-17.7109 4.91602,-28.9375 0,-11.2266 -1.83602,-21.39681 -4.91602,-28.9375 -1.53999,-3.77034 -3.38708,-6.89294 -5.58593,-9.16992 -2.19885,-2.27698 -4.85924,-3.73828 -7.76367,-3.73828 z m 0,3.96875 c 1.59162,0 3.21318,0.76812 4.91015,2.52539 1.69697,1.75726 3.35923,4.47276 4.76563,7.91601 2.81279,6.88651 4.62109,16.64699 4.62109,27.43555 0,10.78856 -1.8083,20.54904 -4.62109,27.43555 -1.4064,3.44325 -3.06866,6.15874 -4.76563,7.91601 -1.69697,1.75727 -3.31853,2.52539 -4.91015,2.52539 -1.59163,0 -3.21319,-0.76812 -4.91016,-2.52539 -1.69697,-1.75727 -3.35923,-4.47276 -4.76563,-7.91601 -2.81279,-6.88651 -4.62109,-16.64699 -4.62109,-27.43555 0,-10.78856 1.8083,-20.54904 4.62109,-27.43555 1.4064,-3.44325 3.06866,-6.15875 4.76563,-7.91601 1.69697,-1.75727 3.31853,-2.52539 4.91016,-2.52539 z"
             id="path4673" />
          <path
             style="color:#000000;fill:#ffdd55;stroke-width:3.96875;stroke-linecap:round;stroke-linejoin:round;-inkscape-stroke:none;paint-order:stroke markers fill"
             d="m -170.11531,227.94327 a 16.281664,39.862003 0 0 1 -16.28166,39.862 16.281664,39.862003 0 0 1 -16.28167,-39.862 16.281664,39.862003 0 0 1 16.28167,-39.86201 16.281664,39.862003 0 0 1 16.28166,39.86201 z"
             id="path4670" />
        </g>
        <path
           id="path4682"
           style="fill:#806600;fill-opacity:1;stroke:none;stroke-width:75.0002;stroke-linecap:round;stroke-linejoin:round;stroke-miterlimit:4;stroke-dasharray:none;stroke-opacity:1;paint-order:stroke markers fill"
           d="m 730.03906,734.49414 v 30.00195 a 150.65954,61.536998 0 0 0 5.30469,3.58985 v -30.00196 a 150.65954,61.536996 0 0 1 -5.30469,-3.58984 z m 12,7.48242 v 30 a 150.65954,61.536998 0 0 0 5.30469,2.64063 v -30 a 150.65954,61.536996 0 0 1 -5.30469,-2.64063 z m 10,4.74414 v 30 a 150.65954,61.536998 0 0 0 5.30469,2.1875 v -30 a 150.65954,61.536996 0 0 1 -5.30469,-2.1875 z m 10,3.98242 v 30 a 150.65954,61.536998 0 0 0 5.30469,1.78516 v -30 a 150.65954,61.536996 0 0 1 -5.30469,-1.78516 z m 14,4.43555 v 30 a 150.65954,61.536998 0 0 0 5.30469,1.41602 v -30 a 150.65954,61.536996 0 0 1 -5.30469,-1.41602 z m 12,3.05078 v 30 a 150.65954,61.536998 0 0 0 5.30469,1.15821 v -30 a 150.65954,61.536996 0 0 1 -5.30469,-1.15821 z m 12,2.44922 v 30 a 150.65954,61.536998 0 0 0 5.30469,0.9336 v -30 a 150.65954,61.536996 0 0 1 -5.30469,-0.9336 z m 12,1.96289 v 30 a 150.65954,61.536998 0 0 0 5.30469,0.68946 v -30 a 150.65954,61.536996 0 0 1 -5.30469,-0.68946 z m 10,1.27149 v 29.99804 a 150.65954,61.536998 0 0 0 5.30469,0.51953 v -29.99804 a 150.65954,61.536996 0 0 1 -5.30469,-0.51953 z m 11.99805,1.10351 v 30 a 150.65954,61.536998 0 0 0 5.30664,0.35742 v -30 a 150.65954,61.536996 0 0 1 -5.30664,-0.35742 z m 14,0.77539 v 30 a 150.65954,61.536998 0 0 0 5.30469,0.16797 v -30 a 150.65954,61.536996 0 0 1 -5.30469,-0.16797 z"
           transform="scale(0.26458333)" />
        <g
           id="ellipse4176"
           transform="rotate(-90)">
          <path
             style="color:#000000;fill:#806600;stroke-linecap:round;stroke-linejoin:round;-inkscape-stroke:none;paint-order:stroke markers fill"
             d="m -184.01172,203.72852 c -1.91007,0 -3.6237,0.96876 -4.96094,2.35351 -1.33723,1.38476 -2.40655,3.21762 -3.29492,5.39258 -1.77673,4.34992 -2.80664,10.1111 -2.80664,16.46875 0,6.35765 1.02991,12.11883 2.80664,16.46875 0.88837,2.17496 1.95769,4.00782 3.29492,5.39258 1.33724,1.38475 3.05087,2.35351 4.96094,2.35351 1.91007,0 3.62565,-0.96876 4.96289,-2.35351 1.33724,-1.38476 2.40656,-3.21762 3.29492,-5.39258 1.77673,-4.34992 2.80664,-10.1111 2.80664,-16.46875 0,-6.35765 -1.02991,-12.11883 -2.80664,-16.46875 -0.88836,-2.17496 -1.95768,-4.00782 -3.29492,-5.39258 -1.33724,-1.38475 -3.05282,-2.35351 -4.96289,-2.35351 z m 0,3.96875 c 0.59726,0 1.27207,0.27558 2.10742,1.14062 0.83536,0.86504 1.7218,2.28885 2.47657,4.13672 1.50952,3.69574 2.51171,9.04913 2.51171,14.96875 0,5.91962 -1.00219,11.27301 -2.51171,14.96875 -0.75477,1.84787 -1.64121,3.27168 -2.47657,4.13672 -0.83535,0.86504 -1.51016,1.14062 -2.10742,1.14062 -0.59726,0 -1.27011,-0.27558 -2.10547,-1.14062 -0.83535,-0.86504 -1.7218,-2.28885 -2.47656,-4.13672 -1.50953,-3.69574 -2.51172,-9.04913 -2.51172,-14.96875 0,-5.91962 1.00219,-11.27301 2.51172,-14.96875 0.75476,-1.84787 1.64121,-3.27168 2.47656,-4.13672 0.83536,-0.86504 1.50821,-1.14062 2.10547,-1.14062 z"
             id="path4667" />
          <path
             style="color:#000000;fill:#d4aa00;stroke-width:3.96875;stroke-linecap:round;stroke-linejoin:round;-inkscape-stroke:none;paint-order:stroke markers fill"
             d="m -174.93101,227.94327 a 9.0798559,22.229988 0 0 1 -9.07985,22.22999 9.0798559,22.229988 0 0 1 -9.07986,-22.22999 9.0798559,22.229988 0 0 1 9.07986,-22.22999 9.0798559,22.229988 0 0 1 9.07985,22.22999 z"
             id="path4664" />
        </g>
      </g>
      <g
         id="g4914"
         transform="matrix(0.8095089,0,0,0.8095089,35.449575,29.912883)">
        <g
           id="g4898">
          <path
             style="color:#000000;fill:#806600;stroke-linecap:round;stroke-linejoin:round;-inkscape-stroke:none;paint-order:stroke markers fill"
             d="m 227.94336,176.06836 c -14.35485,0.003 -27.4853,2.99138 -35.26367,8.34375 h -4.59961 a 1.9845734,1.9845734 0 0 0 -1.98438,1.98437 v 7.9375 c -1e-5,2.90445 1.46325,5.56677 3.74024,7.76563 2.27699,2.19886 5.39956,4.04398 9.16992,5.58398 7.54072,3.08001 17.71086,4.91604 28.9375,4.91602 11.22664,2e-5 21.39678,-1.83601 28.9375,-4.91602 3.77036,-1.54 6.89293,-3.38512 9.16992,-5.58398 2.27699,-2.19886 3.73829,-4.86118 3.73828,-7.76563 v -7.9375 a 1.9845734,1.9845734 0 0 0 -1.98437,-1.98437 h -4.58399 c -7.78133,-5.3544 -20.91703,-8.34343 -35.27734,-8.34375 z m 0,3.96875 c 14.15295,3.2e-4 27.23533,3.28244 33.63086,7.96094 a 1.9845734,1.9845734 0 0 0 1.17187,0.38281 h 3.07422 v 5.95312 c 10e-6,1.59163 -0.76811,3.21319 -2.52539,4.91016 -1.75727,1.69698 -4.47275,3.35922 -7.91601,4.76563 -6.88654,2.8128 -16.64695,4.62111 -27.43555,4.62109 -10.7886,2e-5 -20.55096,-1.80829 -27.4375,-4.62109 -3.44327,-1.40641 -6.15679,-3.06865 -7.91406,-4.76563 -1.75728,-1.69697 -2.52735,-3.31853 -2.52735,-4.91016 v -5.95312 h 3.0918 a 1.9845734,1.9845734 0 0 0 1.17188,-0.38281 c 6.39314,-4.67676 19.46754,-7.95845 33.61523,-7.96094 z"
             id="path4894" />
          <path
             style="color:#000000;fill:#aa8800;stroke-width:3.96875;stroke-linecap:round;stroke-linejoin:round;-inkscape-stroke:none;paint-order:stroke markers fill"
             d="m 227.94319,178.05269 a 39.862003,16.281664 0 0 0 -34.78702,8.3442 h -5.07515 v 7.9375 a 39.862003,16.281664 0 0 0 39.86217,16.28169 39.862003,16.281664 0 0 0 39.86216,-16.28169 v -7.9375 h -5.06015 a 39.862003,16.281664 0 0 0 -34.80201,-8.3442 z"
             id="path4896" />
        </g>
        <g
           id="g4904"
           transform="rotate(-90)">
          <path
             style="color:#000000;fill:#806600;stroke-linecap:round;stroke-linejoin:round;-inkscape-stroke:none;paint-order:stroke markers fill"
             d="m -186.39648,186.09766 c -2.90443,0 -5.56678,1.4613 -7.76563,3.73828 -2.19885,2.27698 -4.04398,5.39958 -5.58398,9.16992 -3.08,7.54069 -4.91602,17.7109 -4.91602,28.9375 0,11.2266 1.83602,21.39681 4.91602,28.9375 1.54,3.77034 3.38513,6.89294 5.58398,9.16992 2.19885,2.27698 4.8612,3.73828 7.76563,3.73828 2.90443,0 5.56482,-1.4613 7.76367,-3.73828 2.19885,-2.27698 4.04594,-5.39958 5.58593,-9.16992 3.08,-7.54069 4.91602,-17.7109 4.91602,-28.9375 0,-11.2266 -1.83602,-21.39681 -4.91602,-28.9375 -1.53999,-3.77034 -3.38708,-6.89294 -5.58593,-9.16992 -2.19885,-2.27698 -4.85924,-3.73828 -7.76367,-3.73828 z m 0,3.96875 c 1.59162,0 3.21318,0.76812 4.91015,2.52539 1.69697,1.75726 3.35923,4.47276 4.76563,7.91601 2.81279,6.88651 4.62109,16.64699 4.62109,27.43555 0,10.78856 -1.8083,20.54904 -4.62109,27.43555 -1.4064,3.44325 -3.06866,6.15874 -4.76563,7.91601 -1.69697,1.75727 -3.31853,2.52539 -4.91015,2.52539 -1.59163,0 -3.21319,-0.76812 -4.91016,-2.52539 -1.69697,-1.75727 -3.35923,-4.47276 -4.76563,-7.91601 -2.81279,-6.88651 -4.62109,-16.64699 -4.62109,-27.43555 0,-10.78856 1.8083,-20.54904 4.62109,-27.43555 1.4064,-3.44325 3.06866,-6.15875 4.76563,-7.91601 1.69697,-1.75727 3.31853,-2.52539 4.91016,-2.52539 z"
             id="path4900" />
          <path
             style="color:#000000;fill:#ffdd55;stroke-width:3.96875;stroke-linecap:round;stroke-linejoin:round;-inkscape-stroke:none;paint-order:stroke markers fill"
             d="m -170.11531,227.94327 a 16.281664,39.862003 0 0 1 -16.28166,39.862 16.281664,39.862003 0 0 1 -16.28167,-39.862 16.281664,39.862003 0 0 1 16.28167,-39.86201 16.281664,39.862003 0 0 1 16.28166,39.86201 z"
             id="path4902" />
        </g>
        <path
           id="path4906"
           style="fill:#806600;fill-opacity:1;stroke:none;stroke-width:75.0002;stroke-linecap:round;stroke-linejoin:round;stroke-miterlimit:4;stroke-dasharray:none;stroke-opacity:1;paint-order:stroke markers fill"
           d="m 730.03906,734.49414 v 30.00195 a 150.65954,61.536998 0 0 0 5.30469,3.58985 v -30.00196 a 150.65954,61.536996 0 0 1 -5.30469,-3.58984 z m 12,7.48242 v 30 a 150.65954,61.536998 0 0 0 5.30469,2.64063 v -30 a 150.65954,61.536996 0 0 1 -5.30469,-2.64063 z m 10,4.74414 v 30 a 150.65954,61.536998 0 0 0 5.30469,2.1875 v -30 a 150.65954,61.536996 0 0 1 -5.30469,-2.1875 z m 10,3.98242 v 30 a 150.65954,61.536998 0 0 0 5.30469,1.78516 v -30 a 150.65954,61.536996 0 0 1 -5.30469,-1.78516 z m 14,4.43555 v 30 a 150.65954,61.536998 0 0 0 5.30469,1.41602 v -30 a 150.65954,61.536996 0 0 1 -5.30469,-1.41602 z m 12,3.05078 v 30 a 150.65954,61.536998 0 0 0 5.30469,1.15821 v -30 a 150.65954,61.536996 0 0 1 -5.30469,-1.15821 z m 12,2.44922 v 30 a 150.65954,61.536998 0 0 0 5.30469,0.9336 v -30 a 150.65954,61.536996 0 0 1 -5.30469,-0.9336 z m 12,1.96289 v 30 a 150.65954,61.536998 0 0 0 5.30469,0.68946 v -30 a 150.65954,61.536996 0 0 1 -5.30469,-0.68946 z m 10,1.27149 v 29.99804 a 150.65954,61.536998 0 0 0 5.30469,0.51953 v -29.99804 a 150.65954,61.536996 0 0 1 -5.30469,-0.51953 z m 11.99805,1.10351 v 30 a 150.65954,61.536998 0 0 0 5.30664,0.35742 v -30 a 150.65954,61.536996 0 0 1 -5.30664,-0.35742 z m 14,0.77539 v 30 a 150.65954,61.536998 0 0 0 5.30469,0.16797 v -30 a 150.65954,61.536996 0 0 1 -5.30469,-0.16797 z"
           transform="scale(0.26458333)" />
        <g
           id="g4912"
           transform="rotate(-90)">
          <path
             style="color:#000000;fill:#806600;stroke-linecap:round;stroke-linejoin:round;-inkscape-stroke:none;paint-order:stroke markers fill"
             d="m -184.01172,203.72852 c -1.91007,0 -3.6237,0.96876 -4.96094,2.35351 -1.33723,1.38476 -2.40655,3.21762 -3.29492,5.39258 -1.77673,4.34992 -2.80664,10.1111 -2.80664,16.46875 0,6.35765 1.02991,12.11883 2.80664,16.46875 0.88837,2.17496 1.95769,4.00782 3.29492,5.39258 1.33724,1.38475 3.05087,2.35351 4.96094,2.35351 1.91007,0 3.62565,-0.96876 4.96289,-2.35351 1.33724,-1.38476 2.40656,-3.21762 3.29492,-5.39258 1.77673,-4.34992 2.80664,-10.1111 2.80664,-16.46875 0,-6.35765 -1.02991,-12.11883 -2.80664,-16.46875 -0.88836,-2.17496 -1.95768,-4.00782 -3.29492,-5.39258 -1.33724,-1.38475 -3.05282,-2.35351 -4.96289,-2.35351 z m 0,3.96875 c 0.59726,0 1.27207,0.27558 2.10742,1.14062 0.83536,0.86504 1.7218,2.28885 2.47657,4.13672 1.50952,3.69574 2.51171,9.04913 2.51171,14.96875 0,5.91962 -1.00219,11.27301 -2.51171,14.96875 -0.75477,1.84787 -1.64121,3.27168 -2.47657,4.13672 -0.83535,0.86504 -1.51016,1.14062 -2.10742,1.14062 -0.59726,0 -1.27011,-0.27558 -2.10547,-1.14062 -0.83535,-0.86504 -1.7218,-2.28885 -2.47656,-4.13672 -1.50953,-3.69574 -2.51172,-9.04913 -2.51172,-14.96875 0,-5.91962 1.00219,-11.27301 2.51172,-14.96875 0.75476,-1.84787 1.64121,-3.27168 2.47656,-4.13672 0.83536,-0.86504 1.50821,-1.14062 2.10547,-1.14062 z"
             id="path4908" />
          <path
             style="color:#000000;fill:#d4aa00;stroke-width:3.96875;stroke-linecap:round;stroke-linejoin:round;-inkscape-stroke:none;paint-order:stroke markers fill"
             d="m -174.93101,227.94327 a 9.0798559,22.229988 0 0 1 -9.07985,22.22999 9.0798559,22.229988 0 0 1 -9.07986,-22.22999 9.0798559,22.229988 0 0 1 9.07986,-22.22999 9.0798559,22.229988 0 0 1 9.07985,22.22999 z"
             id="path4910" />
        </g>
      </g>
      <g
         id="g4936"
         transform="matrix(0.8095089,0,0,0.8095089,30.157908,24.621216)">
        <g
           id="g4920">
          <path
             style="color:#000000;fill:#806600;stroke-linecap:round;stroke-linejoin:round;-inkscape-stroke:none;paint-order:stroke markers fill"
             d="m 227.94336,176.06836 c -14.35485,0.003 -27.4853,2.99138 -35.26367,8.34375 h -4.59961 a 1.9845734,1.9845734 0 0 0 -1.98438,1.98437 v 7.9375 c -1e-5,2.90445 1.46325,5.56677 3.74024,7.76563 2.27699,2.19886 5.39956,4.04398 9.16992,5.58398 7.54072,3.08001 17.71086,4.91604 28.9375,4.91602 11.22664,2e-5 21.39678,-1.83601 28.9375,-4.91602 3.77036,-1.54 6.89293,-3.38512 9.16992,-5.58398 2.27699,-2.19886 3.73829,-4.86118 3.73828,-7.76563 v -7.9375 a 1.9845734,1.9845734 0 0 0 -1.98437,-1.98437 h -4.58399 c -7.78133,-5.3544 -20.91703,-8.34343 -35.27734,-8.34375 z m 0,3.96875 c 14.15295,3.2e-4 27.23533,3.28244 33.63086,7.96094 a 1.9845734,1.9845734 0 0 0 1.17187,0.38281 h 3.07422 v 5.95312 c 10e-6,1.59163 -0.76811,3.21319 -2.52539,4.91016 -1.75727,1.69698 -4.47275,3.35922 -7.91601,4.76563 -6.88654,2.8128 -16.64695,4.62111 -27.43555,4.62109 -10.7886,2e-5 -20.55096,-1.80829 -27.4375,-4.62109 -3.44327,-1.40641 -6.15679,-3.06865 -7.91406,-4.76563 -1.75728,-1.69697 -2.52735,-3.31853 -2.52735,-4.91016 v -5.95312 h 3.0918 a 1.9845734,1.9845734 0 0 0 1.17188,-0.38281 c 6.39314,-4.67676 19.46754,-7.95845 33.61523,-7.96094 z"
             id="path4916" />
          <path
             style="color:#000000;fill:#aa8800;stroke-width:3.96875;stroke-linecap:round;stroke-linejoin:round;-inkscape-stroke:none;paint-order:stroke markers fill"
             d="m 227.94319,178.05269 a 39.862003,16.281664 0 0 0 -34.78702,8.3442 h -5.07515 v 7.9375 a 39.862003,16.281664 0 0 0 39.86217,16.28169 39.862003,16.281664 0 0 0 39.86216,-16.28169 v -7.9375 h -5.06015 a 39.862003,16.281664 0 0 0 -34.80201,-8.3442 z"
             id="path4918" />
        </g>
        <g
           id="g4926"
           transform="rotate(-90)">
          <path
             style="color:#000000;fill:#806600;stroke-linecap:round;stroke-linejoin:round;-inkscape-stroke:none;paint-order:stroke markers fill"
             d="m -186.39648,186.09766 c -2.90443,0 -5.56678,1.4613 -7.76563,3.73828 -2.19885,2.27698 -4.04398,5.39958 -5.58398,9.16992 -3.08,7.54069 -4.91602,17.7109 -4.91602,28.9375 0,11.2266 1.83602,21.39681 4.91602,28.9375 1.54,3.77034 3.38513,6.89294 5.58398,9.16992 2.19885,2.27698 4.8612,3.73828 7.76563,3.73828 2.90443,0 5.56482,-1.4613 7.76367,-3.73828 2.19885,-2.27698 4.04594,-5.39958 5.58593,-9.16992 3.08,-7.54069 4.91602,-17.7109 4.91602,-28.9375 0,-11.2266 -1.83602,-21.39681 -4.91602,-28.9375 -1.53999,-3.77034 -3.38708,-6.89294 -5.58593,-9.16992 -2.19885,-2.27698 -4.85924,-3.73828 -7.76367,-3.73828 z m 0,3.96875 c 1.59162,0 3.21318,0.76812 4.91015,2.52539 1.69697,1.75726 3.35923,4.47276 4.76563,7.91601 2.81279,6.88651 4.62109,16.64699 4.62109,27.43555 0,10.78856 -1.8083,20.54904 -4.62109,27.43555 -1.4064,3.44325 -3.06866,6.15874 -4.76563,7.91601 -1.69697,1.75727 -3.31853,2.52539 -4.91015,2.52539 -1.59163,0 -3.21319,-0.76812 -4.91016,-2.52539 -1.69697,-1.75727 -3.35923,-4.47276 -4.76563,-7.91601 -2.81279,-6.88651 -4.62109,-16.64699 -4.62109,-27.43555 0,-10.78856 1.8083,-20.54904 4.62109,-27.43555 1.4064,-3.44325 3.06866,-6.15875 4.76563,-7.91601 1.69697,-1.75727 3.31853,-2.52539 4.91016,-2.52539 z"
             id="path4922" />
          <path
             style="color:#000000;fill:#ffdd55;stroke-width:3.96875;stroke-linecap:round;stroke-linejoin:round;-inkscape-stroke:none;paint-order:stroke markers fill"
             d="m -170.11531,227.94327 a 16.281664,39.862003 0 0 1 -16.28166,39.862 16.281664,39.862003 0 0 1 -16.28167,-39.862 16.281664,39.862003 0 0 1 16.28167,-39.86201 16.281664,39.862003 0 0 1 16.28166,39.86201 z"
             id="path4924" />
        </g>
        <path
           id="path4928"
           style="fill:#806600;fill-opacity:1;stroke:none;stroke-width:75.0002;stroke-linecap:round;stroke-linejoin:round;stroke-miterlimit:4;stroke-dasharray:none;stroke-opacity:1;paint-order:stroke markers fill"
           d="m 730.03906,734.49414 v 30.00195 a 150.65954,61.536998 0 0 0 5.30469,3.58985 v -30.00196 a 150.65954,61.536996 0 0 1 -5.30469,-3.58984 z m 12,7.48242 v 30 a 150.65954,61.536998 0 0 0 5.30469,2.64063 v -30 a 150.65954,61.536996 0 0 1 -5.30469,-2.64063 z m 10,4.74414 v 30 a 150.65954,61.536998 0 0 0 5.30469,2.1875 v -30 a 150.65954,61.536996 0 0 1 -5.30469,-2.1875 z m 10,3.98242 v 30 a 150.65954,61.536998 0 0 0 5.30469,1.78516 v -30 a 150.65954,61.536996 0 0 1 -5.30469,-1.78516 z m 14,4.43555 v 30 a 150.65954,61.536998 0 0 0 5.30469,1.41602 v -30 a 150.65954,61.536996 0 0 1 -5.30469,-1.41602 z m 12,3.05078 v 30 a 150.65954,61.536998 0 0 0 5.30469,1.15821 v -30 a 150.65954,61.536996 0 0 1 -5.30469,-1.15821 z m 12,2.44922 v 30 a 150.65954,61.536998 0 0 0 5.30469,0.9336 v -30 a 150.65954,61.536996 0 0 1 -5.30469,-0.9336 z m 12,1.96289 v 30 a 150.65954,61.536998 0 0 0 5.30469,0.68946 v -30 a 150.65954,61.536996 0 0 1 -5.30469,-0.68946 z m 10,1.27149 v 29.99804 a 150.65954,61.536998 0 0 0 5.30469,0.51953 v -29.99804 a 150.65954,61.536996 0 0 1 -5.30469,-0.51953 z m 11.99805,1.10351 v 30 a 150.65954,61.536998 0 0 0 5.30664,0.35742 v -30 a 150.65954,61.536996 0 0 1 -5.30664,-0.35742 z m 14,0.77539 v 30 a 150.65954,61.536998 0 0 0 5.30469,0.16797 v -30 a 150.65954,61.536996 0 0 1 -5.30469,-0.16797 z"
           transform="scale(0.26458333)" />
        <g
           id="g4934"
           transform="rotate(-90)">
          <path
             style="color:#000000;fill:#806600;stroke-linecap:round;stroke-linejoin:round;-inkscape-stroke:none;paint-order:stroke markers fill"
             d="m -184.01172,203.72852 c -1.91007,0 -3.6237,0.96876 -4.96094,2.35351 -1.33723,1.38476 -2.40655,3.21762 -3.29492,5.39258 -1.77673,4.34992 -2.80664,10.1111 -2.80664,16.46875 0,6.35765 1.02991,12.11883 2.80664,16.46875 0.88837,2.17496 1.95769,4.00782 3.29492,5.39258 1.33724,1.38475 3.05087,2.35351 4.96094,2.35351 1.91007,0 3.62565,-0.96876 4.96289,-2.35351 1.33724,-1.38476 2.40656,-3.21762 3.29492,-5.39258 1.77673,-4.34992 2.80664,-10.1111 2.80664,-16.46875 0,-6.35765 -1.02991,-12.11883 -2.80664,-16.46875 -0.88836,-2.17496 -1.95768,-4.00782 -3.29492,-5.39258 -1.33724,-1.38475 -3.05282,-2.35351 -4.96289,-2.35351 z m 0,3.96875 c 0.59726,0 1.27207,0.27558 2.10742,1.14062 0.83536,0.86504 1.7218,2.28885 2.47657,4.13672 1.50952,3.69574 2.51171,9.04913 2.51171,14.96875 0,5.91962 -1.00219,11.27301 -2.51171,14.96875 -0.75477,1.84787 -1.64121,3.27168 -2.47657,4.13672 -0.83535,0.86504 -1.51016,1.14062 -2.10742,1.14062 -0.59726,0 -1.27011,-0.27558 -2.10547,-1.14062 -0.83535,-0.86504 -1.7218,-2.28885 -2.47656,-4.13672 -1.50953,-3.69574 -2.51172,-9.04913 -2.51172,-14.96875 0,-5.91962 1.00219,-11.27301 2.51172,-14.96875 0.75476,-1.84787 1.64121,-3.27168 2.47656,-4.13672 0.83536,-0.86504 1.50821,-1.14062 2.10547,-1.14062 z"
             id="path4930" />
          <path
             style="color:#000000;fill:#d4aa00;stroke-width:3.96875;stroke-linecap:round;stroke-linejoin:round;-inkscape-stroke:none;paint-order:stroke markers fill"
             d="m -174.93101,227.94327 a 9.0798559,22.229988 0 0 1 -9.07985,22.22999 9.0798559,22.229988 0 0 1 -9.07986,-22.22999 9.0798559,22.229988 0 0 1 9.07986,-22.22999 9.0798559,22.229988 0 0 1 9.07985,22.22999 z"
             id="path4932" />
        </g>
      </g>
      <g
         id="g4958"
         transform="matrix(0.8095089,0,0,0.8095089,20.632908,19.329549)">
        <g
           id="g4942">
          <path
             style="color:#000000;fill:#806600;stroke-linecap:round;stroke-linejoin:round;-inkscape-stroke:none;paint-order:stroke markers fill"
             d="m 227.94336,176.06836 c -14.35485,0.003 -27.4853,2.99138 -35.26367,8.34375 h -4.59961 a 1.9845734,1.9845734 0 0 0 -1.98438,1.98437 v 7.9375 c -1e-5,2.90445 1.46325,5.56677 3.74024,7.76563 2.27699,2.19886 5.39956,4.04398 9.16992,5.58398 7.54072,3.08001 17.71086,4.91604 28.9375,4.91602 11.22664,2e-5 21.39678,-1.83601 28.9375,-4.91602 3.77036,-1.54 6.89293,-3.38512 9.16992,-5.58398 2.27699,-2.19886 3.73829,-4.86118 3.73828,-7.76563 v -7.9375 a 1.9845734,1.9845734 0 0 0 -1.98437,-1.98437 h -4.58399 c -7.78133,-5.3544 -20.91703,-8.34343 -35.27734,-8.34375 z m 0,3.96875 c 14.15295,3.2e-4 27.23533,3.28244 33.63086,7.96094 a 1.9845734,1.9845734 0 0 0 1.17187,0.38281 h 3.07422 v 5.95312 c 10e-6,1.59163 -0.76811,3.21319 -2.52539,4.91016 -1.75727,1.69698 -4.47275,3.35922 -7.91601,4.76563 -6.88654,2.8128 -16.64695,4.62111 -27.43555,4.62109 -10.7886,2e-5 -20.55096,-1.80829 -27.4375,-4.62109 -3.44327,-1.40641 -6.15679,-3.06865 -7.91406,-4.76563 -1.75728,-1.69697 -2.52735,-3.31853 -2.52735,-4.91016 v -5.95312 h 3.0918 a 1.9845734,1.9845734 0 0 0 1.17188,-0.38281 c 6.39314,-4.67676 19.46754,-7.95845 33.61523,-7.96094 z"
             id="path4938" />
          <path
             style="color:#000000;fill:#aa8800;stroke-width:3.96875;stroke-linecap:round;stroke-linejoin:round;-inkscape-stroke:none;paint-order:stroke markers fill"
             d="m 227.94319,178.05269 a 39.862003,16.281664 0 0 0 -34.78702,8.3442 h -5.07515 v 7.9375 a 39.862003,16.281664 0 0 0 39.86217,16.28169 39.862003,16.281664 0 0 0 39.86216,-16.28169 v -7.9375 h -5.06015 a 39.862003,16.281664 0 0 0 -34.80201,-8.3442 z"
             id="path4940" />
        </g>
        <g
           id="g4948"
           transform="rotate(-90)">
          <path
             style="color:#000000;fill:#806600;stroke-linecap:round;stroke-linejoin:round;-inkscape-stroke:none;paint-order:stroke markers fill"
             d="m -186.39648,186.09766 c -2.90443,0 -5.56678,1.4613 -7.76563,3.73828 -2.19885,2.27698 -4.04398,5.39958 -5.58398,9.16992 -3.08,7.54069 -4.91602,17.7109 -4.91602,28.9375 0,11.2266 1.83602,21.39681 4.91602,28.9375 1.54,3.77034 3.38513,6.89294 5.58398,9.16992 2.19885,2.27698 4.8612,3.73828 7.76563,3.73828 2.90443,0 5.56482,-1.4613 7.76367,-3.73828 2.19885,-2.27698 4.04594,-5.39958 5.58593,-9.16992 3.08,-7.54069 4.91602,-17.7109 4.91602,-28.9375 0,-11.2266 -1.83602,-21.39681 -4.91602,-28.9375 -1.53999,-3.77034 -3.38708,-6.89294 -5.58593,-9.16992 -2.19885,-2.27698 -4.85924,-3.73828 -7.76367,-3.73828 z m 0,3.96875 c 1.59162,0 3.21318,0.76812 4.91015,2.52539 1.69697,1.75726 3.35923,4.47276 4.76563,7.91601 2.81279,6.88651 4.62109,16.64699 4.62109,27.43555 0,10.78856 -1.8083,20.54904 -4.62109,27.43555 -1.4064,3.44325 -3.06866,6.15874 -4.76563,7.91601 -1.69697,1.75727 -3.31853,2.52539 -4.91015,2.52539 -1.59163,0 -3.21319,-0.76812 -4.91016,-2.52539 -1.69697,-1.75727 -3.35923,-4.47276 -4.76563,-7.91601 -2.81279,-6.88651 -4.62109,-16.64699 -4.62109,-27.43555 0,-10.78856 1.8083,-20.54904 4.62109,-27.43555 1.4064,-3.44325 3.06866,-6.15875 4.76563,-7.91601 1.69697,-1.75727 3.31853,-2.52539 4.91016,-2.52539 z"
             id="path4944" />
          <path
             style="color:#000000;fill:#ffdd55;stroke-width:3.96875;stroke-linecap:round;stroke-linejoin:round;-inkscape-stroke:none;paint-order:stroke markers fill"
             d="m -170.11531,227.94327 a 16.281664,39.862003 0 0 1 -16.28166,39.862 16.281664,39.862003 0 0 1 -16.28167,-39.862 16.281664,39.862003 0 0 1 16.28167,-39.86201 16.281664,39.862003 0 0 1 16.28166,39.86201 z"
             id="path4946" />
        </g>
        <path
           id="path4950"
           style="fill:#806600;fill-opacity:1;stroke:none;stroke-width:75.0002;stroke-linecap:round;stroke-linejoin:round;stroke-miterlimit:4;stroke-dasharray:none;stroke-opacity:1;paint-order:stroke markers fill"
           d="m 730.03906,734.49414 v 30.00195 a 150.65954,61.536998 0 0 0 5.30469,3.58985 v -30.00196 a 150.65954,61.536996 0 0 1 -5.30469,-3.58984 z m 12,7.48242 v 30 a 150.65954,61.536998 0 0 0 5.30469,2.64063 v -30 a 150.65954,61.536996 0 0 1 -5.30469,-2.64063 z m 10,4.74414 v 30 a 150.65954,61.536998 0 0 0 5.30469,2.1875 v -30 a 150.65954,61.536996 0 0 1 -5.30469,-2.1875 z m 10,3.98242 v 30 a 150.65954,61.536998 0 0 0 5.30469,1.78516 v -30 a 150.65954,61.536996 0 0 1 -5.30469,-1.78516 z m 14,4.43555 v 30 a 150.65954,61.536998 0 0 0 5.30469,1.41602 v -30 a 150.65954,61.536996 0 0 1 -5.30469,-1.41602 z m 12,3.05078 v 30 a 150.65954,61.536998 0 0 0 5.30469,1.15821 v -30 a 150.65954,61.536996 0 0 1 -5.30469,-1.15821 z m 12,2.44922 v 30 a 150.65954,61.536998 0 0 0 5.30469,0.9336 v -30 a 150.65954,61.536996 0 0 1 -5.30469,-0.9336 z m 12,1.96289 v 30 a 150.65954,61.536998 0 0 0 5.30469,0.68946 v -30 a 150.65954,61.536996 0 0 1 -5.30469,-0.68946 z m 10,1.27149 v 29.99804 a 150.65954,61.536998 0 0 0 5.30469,0.51953 v -29.99804 a 150.65954,61.536996 0 0 1 -5.30469,-0.51953 z m 11.99805,1.10351 v 30 a 150.65954,61.536998 0 0 0 5.30664,0.35742 v -30 a 150.65954,61.536996 0 0 1 -5.30664,-0.35742 z m 14,0.77539 v 30 a 150.65954,61.536998 0 0 0 5.30469,0.16797 v -30 a 150.65954,61.536996 0 0 1 -5.30469,-0.16797 z"
           transform="scale(0.26458333)" />
        <g
           id="g4956"
           transform="rotate(-90)">
          <path
             style="color:#000000;fill:#806600;stroke-linecap:round;stroke-linejoin:round;-inkscape-stroke:none;paint-order:stroke markers fill"
             d="m -184.01172,203.72852 c -1.91007,0 -3.6237,0.96876 -4.96094,2.35351 -1.33723,1.38476 -2.40655,3.21762 -3.29492,5.39258 -1.77673,4.34992 -2.80664,10.1111 -2.80664,16.46875 0,6.35765 1.02991,12.11883 2.80664,16.46875 0.88837,2.17496 1.95769,4.00782 3.29492,5.39258 1.33724,1.38475 3.05087,2.35351 4.96094,2.35351 1.91007,0 3.62565,-0.96876 4.96289,-2.35351 1.33724,-1.38476 2.40656,-3.21762 3.29492,-5.39258 1.77673,-4.34992 2.80664,-10.1111 2.80664,-16.46875 0,-6.35765 -1.02991,-12.11883 -2.80664,-16.46875 -0.88836,-2.17496 -1.95768,-4.00782 -3.29492,-5.39258 -1.33724,-1.38475 -3.05282,-2.35351 -4.96289,-2.35351 z m 0,3.96875 c 0.59726,0 1.27207,0.27558 2.10742,1.14062 0.83536,0.86504 1.7218,2.28885 2.47657,4.13672 1.50952,3.69574 2.51171,9.04913 2.51171,14.96875 0,5.91962 -1.00219,11.27301 -2.51171,14.96875 -0.75477,1.84787 -1.64121,3.27168 -2.47657,4.13672 -0.83535,0.86504 -1.51016,1.14062 -2.10742,1.14062 -0.59726,0 -1.27011,-0.27558 -2.10547,-1.14062 -0.83535,-0.86504 -1.7218,-2.28885 -2.47656,-4.13672 -1.50953,-3.69574 -2.51172,-9.04913 -2.51172,-14.96875 0,-5.91962 1.00219,-11.27301 2.51172,-14.96875 0.75476,-1.84787 1.64121,-3.27168 2.47656,-4.13672 0.83536,-0.86504 1.50821,-1.14062 2.10547,-1.14062 z"
             id="path4952" />
          <path
             style="color:#000000;fill:#d4aa00;stroke-width:3.96875;stroke-linecap:round;stroke-linejoin:round;-inkscape-stroke:none;paint-order:stroke markers fill"
             d="m -174.93101,227.94327 a 9.0798559,22.229988 0 0 1 -9.07985,22.22999 9.0798559,22.229988 0 0 1 -9.07986,-22.22999 9.0798559,22.229988 0 0 1 9.07986,-22.22999 9.0798559,22.229988 0 0 1 9.07985,22.22999 z"
             id="path4954" />
        </g>
      </g>
      <g
         id="g4980"
         transform="matrix(0.8095089,0,0,0.8095089,23.80791,14.037882)">
        <g
           id="g4964">
          <path
             style="color:#000000;fill:#806600;stroke-linecap:round;stroke-linejoin:round;-inkscape-stroke:none;paint-order:stroke markers fill"
             d="m 227.94336,176.06836 c -14.35485,0.003 -27.4853,2.99138 -35.26367,8.34375 h -4.59961 a 1.9845734,1.9845734 0 0 0 -1.98438,1.98437 v 7.9375 c -1e-5,2.90445 1.46325,5.56677 3.74024,7.76563 2.27699,2.19886 5.39956,4.04398 9.16992,5.58398 7.54072,3.08001 17.71086,4.91604 28.9375,4.91602 11.22664,2e-5 21.39678,-1.83601 28.9375,-4.91602 3.77036,-1.54 6.89293,-3.38512 9.16992,-5.58398 2.27699,-2.19886 3.73829,-4.86118 3.73828,-7.76563 v -7.9375 a 1.9845734,1.9845734 0 0 0 -1.98437,-1.98437 h -4.58399 c -7.78133,-5.3544 -20.91703,-8.34343 -35.27734,-8.34375 z m 0,3.96875 c 14.15295,3.2e-4 27.23533,3.28244 33.63086,7.96094 a 1.9845734,1.9845734 0 0 0 1.17187,0.38281 h 3.07422 v 5.95312 c 10e-6,1.59163 -0.76811,3.21319 -2.52539,4.91016 -1.75727,1.69698 -4.47275,3.35922 -7.91601,4.76563 -6.88654,2.8128 -16.64695,4.62111 -27.43555,4.62109 -10.7886,2e-5 -20.55096,-1.80829 -27.4375,-4.62109 -3.44327,-1.40641 -6.15679,-3.06865 -7.91406,-4.76563 -1.75728,-1.69697 -2.52735,-3.31853 -2.52735,-4.91016 v -5.95312 h 3.0918 a 1.9845734,1.9845734 0 0 0 1.17188,-0.38281 c 6.39314,-4.67676 19.46754,-7.95845 33.61523,-7.96094 z"
             id="path4960" />
          <path
             style="color:#000000;fill:#aa8800;stroke-width:3.96875;stroke-linecap:round;stroke-linejoin:round;-inkscape-stroke:none;paint-order:stroke markers fill"
             d="m 227.94319,178.05269 a 39.862003,16.281664 0 0 0 -34.78702,8.3442 h -5.07515 v 7.9375 a 39.862003,16.281664 0 0 0 39.86217,16.28169 39.862003,16.281664 0 0 0 39.86216,-16.28169 v -7.9375 h -5.06015 a 39.862003,16.281664 0 0 0 -34.80201,-8.3442 z"
             id="path4962" />
        </g>
        <g
           id="g4970"
           transform="rotate(-90)">
          <path
             style="color:#000000;fill:#806600;stroke-linecap:round;stroke-linejoin:round;-inkscape-stroke:none;paint-order:stroke markers fill"
             d="m -186.39648,186.09766 c -2.90443,0 -5.56678,1.4613 -7.76563,3.73828 -2.19885,2.27698 -4.04398,5.39958 -5.58398,9.16992 -3.08,7.54069 -4.91602,17.7109 -4.91602,28.9375 0,11.2266 1.83602,21.39681 4.91602,28.9375 1.54,3.77034 3.38513,6.89294 5.58398,9.16992 2.19885,2.27698 4.8612,3.73828 7.76563,3.73828 2.90443,0 5.56482,-1.4613 7.76367,-3.73828 2.19885,-2.27698 4.04594,-5.39958 5.58593,-9.16992 3.08,-7.54069 4.91602,-17.7109 4.91602,-28.9375 0,-11.2266 -1.83602,-21.39681 -4.91602,-28.9375 -1.53999,-3.77034 -3.38708,-6.89294 -5.58593,-9.16992 -2.19885,-2.27698 -4.85924,-3.73828 -7.76367,-3.73828 z m 0,3.96875 c 1.59162,0 3.21318,0.76812 4.91015,2.52539 1.69697,1.75726 3.35923,4.47276 4.76563,7.91601 2.81279,6.88651 4.62109,16.64699 4.62109,27.43555 0,10.78856 -1.8083,20.54904 -4.62109,27.43555 -1.4064,3.44325 -3.06866,6.15874 -4.76563,7.91601 -1.69697,1.75727 -3.31853,2.52539 -4.91015,2.52539 -1.59163,0 -3.21319,-0.76812 -4.91016,-2.52539 -1.69697,-1.75727 -3.35923,-4.47276 -4.76563,-7.91601 -2.81279,-6.88651 -4.62109,-16.64699 -4.62109,-27.43555 0,-10.78856 1.8083,-20.54904 4.62109,-27.43555 1.4064,-3.44325 3.06866,-6.15875 4.76563,-7.91601 1.69697,-1.75727 3.31853,-2.52539 4.91016,-2.52539 z"
             id="path4966" />
          <path
             style="color:#000000;fill:#ffdd55;stroke-width:3.96875;stroke-linecap:round;stroke-linejoin:round;-inkscape-stroke:none;paint-order:stroke markers fill"
             d="m -170.11531,227.94327 a 16.281664,39.862003 0 0 1 -16.28166,39.862 16.281664,39.862003 0 0 1 -16.28167,-39.862 16.281664,39.862003 0 0 1 16.28167,-39.86201 16.281664,39.862003 0 0 1 16.28166,39.86201 z"
             id="path4968" />
        </g>
        <path
           id="path4972"
           style="fill:#806600;fill-opacity:1;stroke:none;stroke-width:75.0002;stroke-linecap:round;stroke-linejoin:round;stroke-miterlimit:4;stroke-dasharray:none;stroke-opacity:1;paint-order:stroke markers fill"
           d="m 730.03906,734.49414 v 30.00195 a 150.65954,61.536998 0 0 0 5.30469,3.58985 v -30.00196 a 150.65954,61.536996 0 0 1 -5.30469,-3.58984 z m 12,7.48242 v 30 a 150.65954,61.536998 0 0 0 5.30469,2.64063 v -30 a 150.65954,61.536996 0 0 1 -5.30469,-2.64063 z m 10,4.74414 v 30 a 150.65954,61.536998 0 0 0 5.30469,2.1875 v -30 a 150.65954,61.536996 0 0 1 -5.30469,-2.1875 z m 10,3.98242 v 30 a 150.65954,61.536998 0 0 0 5.30469,1.78516 v -30 a 150.65954,61.536996 0 0 1 -5.30469,-1.78516 z m 14,4.43555 v 30 a 150.65954,61.536998 0 0 0 5.30469,1.41602 v -30 a 150.65954,61.536996 0 0 1 -5.30469,-1.41602 z m 12,3.05078 v 30 a 150.65954,61.536998 0 0 0 5.30469,1.15821 v -30 a 150.65954,61.536996 0 0 1 -5.30469,-1.15821 z m 12,2.44922 v 30 a 150.65954,61.536998 0 0 0 5.30469,0.9336 v -30 a 150.65954,61.536996 0 0 1 -5.30469,-0.9336 z m 12,1.96289 v 30 a 150.65954,61.536998 0 0 0 5.30469,0.68946 v -30 a 150.65954,61.536996 0 0 1 -5.30469,-0.68946 z m 10,1.27149 v 29.99804 a 150.65954,61.536998 0 0 0 5.30469,0.51953 v -29.99804 a 150.65954,61.536996 0 0 1 -5.30469,-0.51953 z m 11.99805,1.10351 v 30 a 150.65954,61.536998 0 0 0 5.30664,0.35742 v -30 a 150.65954,61.536996 0 0 1 -5.30664,-0.35742 z m 14,0.77539 v 30 a 150.65954,61.536998 0 0 0 5.30469,0.16797 v -30 a 150.65954,61.536996 0 0 1 -5.30469,-0.16797 z"
           transform="scale(0.26458333)" />
        <g
           id="g4978"
           transform="rotate(-90)">
          <path
             style="color:#000000;fill:#806600;stroke-linecap:round;stroke-linejoin:round;-inkscape-stroke:none;paint-order:stroke markers fill"
             d="m -184.01172,203.72852 c -1.91007,0 -3.6237,0.96876 -4.96094,2.35351 -1.33723,1.38476 -2.40655,3.21762 -3.29492,5.39258 -1.77673,4.34992 -2.80664,10.1111 -2.80664,16.46875 0,6.35765 1.02991,12.11883 2.80664,16.46875 0.88837,2.17496 1.95769,4.00782 3.29492,5.39258 1.33724,1.38475 3.05087,2.35351 4.96094,2.35351 1.91007,0 3.62565,-0.96876 4.96289,-2.35351 1.33724,-1.38476 2.40656,-3.21762 3.29492,-5.39258 1.77673,-4.34992 2.80664,-10.1111 2.80664,-16.46875 0,-6.35765 -1.02991,-12.11883 -2.80664,-16.46875 -0.88836,-2.17496 -1.95768,-4.00782 -3.29492,-5.39258 -1.33724,-1.38475 -3.05282,-2.35351 -4.96289,-2.35351 z m 0,3.96875 c 0.59726,0 1.27207,0.27558 2.10742,1.14062 0.83536,0.86504 1.7218,2.28885 2.47657,4.13672 1.50952,3.69574 2.51171,9.04913 2.51171,14.96875 0,5.91962 -1.00219,11.27301 -2.51171,14.96875 -0.75477,1.84787 -1.64121,3.27168 -2.47657,4.13672 -0.83535,0.86504 -1.51016,1.14062 -2.10742,1.14062 -0.59726,0 -1.27011,-0.27558 -2.10547,-1.14062 -0.83535,-0.86504 -1.7218,-2.28885 -2.47656,-4.13672 -1.50953,-3.69574 -2.51172,-9.04913 -2.51172,-14.96875 0,-5.91962 1.00219,-11.27301 2.51172,-14.96875 0.75476,-1.84787 1.64121,-3.27168 2.47656,-4.13672 0.83536,-0.86504 1.50821,-1.14062 2.10547,-1.14062 z"
             id="path4974" />
          <path
             style="color:#000000;fill:#d4aa00;stroke-width:3.96875;stroke-linecap:round;stroke-linejoin:round;-inkscape-stroke:none;paint-order:stroke markers fill"
             d="m -174.93101,227.94327 a 9.0798559,22.229988 0 0 1 -9.07985,22.22999 9.0798559,22.229988 0 0 1 -9.07986,-22.22999 9.0798559,22.229988 0 0 1 9.07986,-22.22999 9.0798559,22.229988 0 0 1 9.07985,22.22999 z"
             id="path4976" />
        </g>
      </g>
      <g
         id="g5002"
         transform="matrix(0.8095089,0,0,0.8095089,26.982912,8.7462153)">
        <g
           id="g4986">
          <path
             style="color:#000000;fill:#806600;stroke-linecap:round;stroke-linejoin:round;-inkscape-stroke:none;paint-order:stroke markers fill"
             d="m 227.94336,176.06836 c -14.35485,0.003 -27.4853,2.99138 -35.26367,8.34375 h -4.59961 a 1.9845734,1.9845734 0 0 0 -1.98438,1.98437 v 7.9375 c -1e-5,2.90445 1.46325,5.56677 3.74024,7.76563 2.27699,2.19886 5.39956,4.04398 9.16992,5.58398 7.54072,3.08001 17.71086,4.91604 28.9375,4.91602 11.22664,2e-5 21.39678,-1.83601 28.9375,-4.91602 3.77036,-1.54 6.89293,-3.38512 9.16992,-5.58398 2.27699,-2.19886 3.73829,-4.86118 3.73828,-7.76563 v -7.9375 a 1.9845734,1.9845734 0 0 0 -1.98437,-1.98437 h -4.58399 c -7.78133,-5.3544 -20.91703,-8.34343 -35.27734,-8.34375 z m 0,3.96875 c 14.15295,3.2e-4 27.23533,3.28244 33.63086,7.96094 a 1.9845734,1.9845734 0 0 0 1.17187,0.38281 h 3.07422 v 5.95312 c 10e-6,1.59163 -0.76811,3.21319 -2.52539,4.91016 -1.75727,1.69698 -4.47275,3.35922 -7.91601,4.76563 -6.88654,2.8128 -16.64695,4.62111 -27.43555,4.62109 -10.7886,2e-5 -20.55096,-1.80829 -27.4375,-4.62109 -3.44327,-1.40641 -6.15679,-3.06865 -7.91406,-4.76563 -1.75728,-1.69697 -2.52735,-3.31853 -2.52735,-4.91016 v -5.95312 h 3.0918 a 1.9845734,1.9845734 0 0 0 1.17188,-0.38281 c 6.39314,-4.67676 19.46754,-7.95845 33.61523,-7.96094 z"
             id="path4982" />
          <path
             style="color:#000000;fill:#aa8800;stroke-width:3.96875;stroke-linecap:round;stroke-linejoin:round;-inkscape-stroke:none;paint-order:stroke markers fill"
             d="m 227.94319,178.05269 a 39.862003,16.281664 0 0 0 -34.78702,8.3442 h -5.07515 v 7.9375 a 39.862003,16.281664 0 0 0 39.86217,16.28169 39.862003,16.281664 0 0 0 39.86216,-16.28169 v -7.9375 h -5.06015 a 39.862003,16.281664 0 0 0 -34.80201,-8.3442 z"
             id="path4984" />
        </g>
        <g
           id="g4992"
           transform="rotate(-90)">
          <path
             style="color:#000000;fill:#806600;stroke-linecap:round;stroke-linejoin:round;-inkscape-stroke:none;paint-order:stroke markers fill"
             d="m -186.39648,186.09766 c -2.90443,0 -5.56678,1.4613 -7.76563,3.73828 -2.19885,2.27698 -4.04398,5.39958 -5.58398,9.16992 -3.08,7.54069 -4.91602,17.7109 -4.91602,28.9375 0,11.2266 1.83602,21.39681 4.91602,28.9375 1.54,3.77034 3.38513,6.89294 5.58398,9.16992 2.19885,2.27698 4.8612,3.73828 7.76563,3.73828 2.90443,0 5.56482,-1.4613 7.76367,-3.73828 2.19885,-2.27698 4.04594,-5.39958 5.58593,-9.16992 3.08,-7.54069 4.91602,-17.7109 4.91602,-28.9375 0,-11.2266 -1.83602,-21.39681 -4.91602,-28.9375 -1.53999,-3.77034 -3.38708,-6.89294 -5.58593,-9.16992 -2.19885,-2.27698 -4.85924,-3.73828 -7.76367,-3.73828 z m 0,3.96875 c 1.59162,0 3.21318,0.76812 4.91015,2.52539 1.69697,1.75726 3.35923,4.47276 4.76563,7.91601 2.81279,6.88651 4.62109,16.64699 4.62109,27.43555 0,10.78856 -1.8083,20.54904 -4.62109,27.43555 -1.4064,3.44325 -3.06866,6.15874 -4.76563,7.91601 -1.69697,1.75727 -3.31853,2.52539 -4.91015,2.52539 -1.59163,0 -3.21319,-0.76812 -4.91016,-2.52539 -1.69697,-1.75727 -3.35923,-4.47276 -4.76563,-7.91601 -2.81279,-6.88651 -4.62109,-16.64699 -4.62109,-27.43555 0,-10.78856 1.8083,-20.54904 4.62109,-27.43555 1.4064,-3.44325 3.06866,-6.15875 4.76563,-7.91601 1.69697,-1.75727 3.31853,-2.52539 4.91016,-2.52539 z"
             id="path4988" />
          <path
             style="color:#000000;fill:#ffdd55;stroke-width:3.96875;stroke-linecap:round;stroke-linejoin:round;-inkscape-stroke:none;paint-order:stroke markers fill"
             d="m -170.11531,227.94327 a 16.281664,39.862003 0 0 1 -16.28166,39.862 16.281664,39.862003 0 0 1 -16.28167,-39.862 16.281664,39.862003 0 0 1 16.28167,-39.86201 16.281664,39.862003 0 0 1 16.28166,39.86201 z"
             id="path4990" />
        </g>
        <path
           id="path4994"
           style="fill:#806600;fill-opacity:1;stroke:none;stroke-width:75.0002;stroke-linecap:round;stroke-linejoin:round;stroke-miterlimit:4;stroke-dasharray:none;stroke-opacity:1;paint-order:stroke markers fill"
           d="m 730.03906,734.49414 v 30.00195 a 150.65954,61.536998 0 0 0 5.30469,3.58985 v -30.00196 a 150.65954,61.536996 0 0 1 -5.30469,-3.58984 z m 12,7.48242 v 30 a 150.65954,61.536998 0 0 0 5.30469,2.64063 v -30 a 150.65954,61.536996 0 0 1 -5.30469,-2.64063 z m 10,4.74414 v 30 a 150.65954,61.536998 0 0 0 5.30469,2.1875 v -30 a 150.65954,61.536996 0 0 1 -5.30469,-2.1875 z m 10,3.98242 v 30 a 150.65954,61.536998 0 0 0 5.30469,1.78516 v -30 a 150.65954,61.536996 0 0 1 -5.30469,-1.78516 z m 14,4.43555 v 30 a 150.65954,61.536998 0 0 0 5.30469,1.41602 v -30 a 150.65954,61.536996 0 0 1 -5.30469,-1.41602 z m 12,3.05078 v 30 a 150.65954,61.536998 0 0 0 5.30469,1.15821 v -30 a 150.65954,61.536996 0 0 1 -5.30469,-1.15821 z m 12,2.44922 v 30 a 150.65954,61.536998 0 0 0 5.30469,0.9336 v -30 a 150.65954,61.536996 0 0 1 -5.30469,-0.9336 z m 12,1.96289 v 30 a 150.65954,61.536998 0 0 0 5.30469,0.68946 v -30 a 150.65954,61.536996 0 0 1 -5.30469,-0.68946 z m 10,1.27149 v 29.99804 a 150.65954,61.536998 0 0 0 5.30469,0.51953 v -29.99804 a 150.65954,61.536996 0 0 1 -5.30469,-0.51953 z m 11.99805,1.10351 v 30 a 150.65954,61.536998 0 0 0 5.30664,0.35742 v -30 a 150.65954,61.536996 0 0 1 -5.30664,-0.35742 z m 14,0.77539 v 30 a 150.65954,61.536998 0 0 0 5.30469,0.16797 v -30 a 150.65954,61.536996 0 0 1 -5.30469,-0.16797 z"
           transform="scale(0.26458333)" />
        <g
           id="g5000"
           transform="rotate(-90)">
          <path
             style="color:#000000;fill:#806600;stroke-linecap:round;stroke-linejoin:round;-inkscape-stroke:none;paint-order:stroke markers fill"
             d="m -184.01172,203.72852 c -1.91007,0 -3.6237,0.96876 -4.96094,2.35351 -1.33723,1.38476 -2.40655,3.21762 -3.29492,5.39258 -1.77673,4.34992 -2.80664,10.1111 -2.80664,16.46875 0,6.35765 1.02991,12.11883 2.80664,16.46875 0.88837,2.17496 1.95769,4.00782 3.29492,5.39258 1.33724,1.38475 3.05087,2.35351 4.96094,2.35351 1.91007,0 3.62565,-0.96876 4.96289,-2.35351 1.33724,-1.38476 2.40656,-3.21762 3.29492,-5.39258 1.77673,-4.34992 2.80664,-10.1111 2.80664,-16.46875 0,-6.35765 -1.02991,-12.11883 -2.80664,-16.46875 -0.88836,-2.17496 -1.95768,-4.00782 -3.29492,-5.39258 -1.33724,-1.38475 -3.05282,-2.35351 -4.96289,-2.35351 z m 0,3.96875 c 0.59726,0 1.27207,0.27558 2.10742,1.14062 0.83536,0.86504 1.7218,2.28885 2.47657,4.13672 1.50952,3.69574 2.51171,9.04913 2.51171,14.96875 0,5.91962 -1.00219,11.27301 -2.51171,14.96875 -0.75477,1.84787 -1.64121,3.27168 -2.47657,4.13672 -0.83535,0.86504 -1.51016,1.14062 -2.10742,1.14062 -0.59726,0 -1.27011,-0.27558 -2.10547,-1.14062 -0.83535,-0.86504 -1.7218,-2.28885 -2.47656,-4.13672 -1.50953,-3.69574 -2.51172,-9.04913 -2.51172,-14.96875 0,-5.91962 1.00219,-11.27301 2.51172,-14.96875 0.75476,-1.84787 1.64121,-3.27168 2.47656,-4.13672 0.83536,-0.86504 1.50821,-1.14062 2.10547,-1.14062 z"
             id="path4996" />
          <path
             style="color:#000000;fill:#d4aa00;stroke-width:3.96875;stroke-linecap:round;stroke-linejoin:round;-inkscape-stroke:none;paint-order:stroke markers fill"
             d="m -174.93101,227.94327 a 9.0798559,22.229988 0 0 1 -9.07985,22.22999 9.0798559,22.229988 0 0 1 -9.07986,-22.22999 9.0798559,22.229988 0 0 1 9.07986,-22.22999 9.0798559,22.229988 0 0 1 9.07985,22.22999 z"
             id="path4998" />
        </g>
      </g>
      <g
         id="g5024"
         transform="matrix(0.8095089,0,0,0.8095089,21.691245,-1.8371181)">
        <g
           id="g5008">
          <path
             style="color:#000000;fill:#806600;stroke-linecap:round;stroke-linejoin:round;-inkscape-stroke:none;paint-order:stroke markers fill"
             d="m 227.94336,176.06836 c -14.35485,0.003 -27.4853,2.99138 -35.26367,8.34375 h -4.59961 a 1.9845734,1.9845734 0 0 0 -1.98438,1.98437 v 7.9375 c -1e-5,2.90445 1.46325,5.56677 3.74024,7.76563 2.27699,2.19886 5.39956,4.04398 9.16992,5.58398 7.54072,3.08001 17.71086,4.91604 28.9375,4.91602 11.22664,2e-5 21.39678,-1.83601 28.9375,-4.91602 3.77036,-1.54 6.89293,-3.38512 9.16992,-5.58398 2.27699,-2.19886 3.73829,-4.86118 3.73828,-7.76563 v -7.9375 a 1.9845734,1.9845734 0 0 0 -1.98437,-1.98437 h -4.58399 c -7.78133,-5.3544 -20.91703,-8.34343 -35.27734,-8.34375 z m 0,3.96875 c 14.15295,3.2e-4 27.23533,3.28244 33.63086,7.96094 a 1.9845734,1.9845734 0 0 0 1.17187,0.38281 h 3.07422 v 5.95312 c 10e-6,1.59163 -0.76811,3.21319 -2.52539,4.91016 -1.75727,1.69698 -4.47275,3.35922 -7.91601,4.76563 -6.88654,2.8128 -16.64695,4.62111 -27.43555,4.62109 -10.7886,2e-5 -20.55096,-1.80829 -27.4375,-4.62109 -3.44327,-1.40641 -6.15679,-3.06865 -7.91406,-4.76563 -1.75728,-1.69697 -2.52735,-3.31853 -2.52735,-4.91016 v -5.95312 h 3.0918 a 1.9845734,1.9845734 0 0 0 1.17188,-0.38281 c 6.39314,-4.67676 19.46754,-7.95845 33.61523,-7.96094 z"
             id="path5004" />
          <path
             style="color:#000000;fill:#aa8800;stroke-width:3.96875;stroke-linecap:round;stroke-linejoin:round;-inkscape-stroke:none;paint-order:stroke markers fill"
             d="m 227.94319,178.05269 a 39.862003,16.281664 0 0 0 -34.78702,8.3442 h -5.07515 v 7.9375 a 39.862003,16.281664 0 0 0 39.86217,16.28169 39.862003,16.281664 0 0 0 39.86216,-16.28169 v -7.9375 h -5.06015 a 39.862003,16.281664 0 0 0 -34.80201,-8.3442 z"
             id="path5006" />
        </g>
        <g
           id="g5014"
           transform="rotate(-90)">
          <path
             style="color:#000000;fill:#806600;stroke-linecap:round;stroke-linejoin:round;-inkscape-stroke:none;paint-order:stroke markers fill"
             d="m -186.39648,186.09766 c -2.90443,0 -5.56678,1.4613 -7.76563,3.73828 -2.19885,2.27698 -4.04398,5.39958 -5.58398,9.16992 -3.08,7.54069 -4.91602,17.7109 -4.91602,28.9375 0,11.2266 1.83602,21.39681 4.91602,28.9375 1.54,3.77034 3.38513,6.89294 5.58398,9.16992 2.19885,2.27698 4.8612,3.73828 7.76563,3.73828 2.90443,0 5.56482,-1.4613 7.76367,-3.73828 2.19885,-2.27698 4.04594,-5.39958 5.58593,-9.16992 3.08,-7.54069 4.91602,-17.7109 4.91602,-28.9375 0,-11.2266 -1.83602,-21.39681 -4.91602,-28.9375 -1.53999,-3.77034 -3.38708,-6.89294 -5.58593,-9.16992 -2.19885,-2.27698 -4.85924,-3.73828 -7.76367,-3.73828 z m 0,3.96875 c 1.59162,0 3.21318,0.76812 4.91015,2.52539 1.69697,1.75726 3.35923,4.47276 4.76563,7.91601 2.81279,6.88651 4.62109,16.64699 4.62109,27.43555 0,10.78856 -1.8083,20.54904 -4.62109,27.43555 -1.4064,3.44325 -3.06866,6.15874 -4.76563,7.91601 -1.69697,1.75727 -3.31853,2.52539 -4.91015,2.52539 -1.59163,0 -3.21319,-0.76812 -4.91016,-2.52539 -1.69697,-1.75727 -3.35923,-4.47276 -4.76563,-7.91601 -2.81279,-6.88651 -4.62109,-16.64699 -4.62109,-27.43555 0,-10.78856 1.8083,-20.54904 4.62109,-27.43555 1.4064,-3.44325 3.06866,-6.15875 4.76563,-7.91601 1.69697,-1.75727 3.31853,-2.52539 4.91016,-2.52539 z"
             id="path5010" />
          <path
             style="color:#000000;fill:#ffdd55;stroke-width:3.96875;stroke-linecap:round;stroke-linejoin:round;-inkscape-stroke:none;paint-order:stroke markers fill"
             d="m -170.11531,227.94327 a 16.281664,39.862003 0 0 1 -16.28166,39.862 16.281664,39.862003 0 0 1 -16.28167,-39.862 16.281664,39.862003 0 0 1 16.28167,-39.86201 16.281664,39.862003 0 0 1 16.28166,39.86201 z"
             id="path5012" />
        </g>
        <path
           id="path5016"
           style="fill:#806600;fill-opacity:1;stroke:none;stroke-width:75.0002;stroke-linecap:round;stroke-linejoin:round;stroke-miterlimit:4;stroke-dasharray:none;stroke-opacity:1;paint-order:stroke markers fill"
           d="m 730.03906,734.49414 v 30.00195 a 150.65954,61.536998 0 0 0 5.30469,3.58985 v -30.00196 a 150.65954,61.536996 0 0 1 -5.30469,-3.58984 z m 12,7.48242 v 30 a 150.65954,61.536998 0 0 0 5.30469,2.64063 v -30 a 150.65954,61.536996 0 0 1 -5.30469,-2.64063 z m 10,4.74414 v 30 a 150.65954,61.536998 0 0 0 5.30469,2.1875 v -30 a 150.65954,61.536996 0 0 1 -5.30469,-2.1875 z m 10,3.98242 v 30 a 150.65954,61.536998 0 0 0 5.30469,1.78516 v -30 a 150.65954,61.536996 0 0 1 -5.30469,-1.78516 z m 14,4.43555 v 30 a 150.65954,61.536998 0 0 0 5.30469,1.41602 v -30 a 150.65954,61.536996 0 0 1 -5.30469,-1.41602 z m 12,3.05078 v 30 a 150.65954,61.536998 0 0 0 5.30469,1.15821 v -30 a 150.65954,61.536996 0 0 1 -5.30469,-1.15821 z m 12,2.44922 v 30 a 150.65954,61.536998 0 0 0 5.30469,0.9336 v -30 a 150.65954,61.536996 0 0 1 -5.30469,-0.9336 z m 12,1.96289 v 30 a 150.65954,61.536998 0 0 0 5.30469,0.68946 v -30 a 150.65954,61.536996 0 0 1 -5.30469,-0.68946 z m 10,1.27149 v 29.99804 a 150.65954,61.536998 0 0 0 5.30469,0.51953 v -29.99804 a 150.65954,61.536996 0 0 1 -5.30469,-0.51953 z m 11.99805,1.10351 v 30 a 150.65954,61.536998 0 0 0 5.30664,0.35742 v -30 a 150.65954,61.536996 0 0 1 -5.30664,-0.35742 z m 14,0.77539 v 30 a 150.65954,61.536998 0 0 0 5.30469,0.16797 v -30 a 150.65954,61.536996 0 0 1 -5.30469,-0.16797 z"
           transform="scale(0.26458333)" />
        <g
           id="g5022"
           transform="rotate(-90)">
          <path
             style="color:#000000;fill:#806600;stroke-linecap:round;stroke-linejoin:round;-inkscape-stroke:none;paint-order:stroke markers fill"
             d="m -184.01172,203.72852 c -1.91007,0 -3.6237,0.96876 -4.96094,2.35351 -1.33723,1.38476 -2.40655,3.21762 -3.29492,5.39258 -1.77673,4.34992 -2.80664,10.1111 -2.80664,16.46875 0,6.35765 1.02991,12.11883 2.80664,16.46875 0.88837,2.17496 1.95769,4.00782 3.29492,5.39258 1.33724,1.38475 3.05087,2.35351 4.96094,2.35351 1.91007,0 3.62565,-0.96876 4.96289,-2.35351 1.33724,-1.38476 2.40656,-3.21762 3.29492,-5.39258 1.77673,-4.34992 2.80664,-10.1111 2.80664,-16.46875 0,-6.35765 -1.02991,-12.11883 -2.80664,-16.46875 -0.88836,-2.17496 -1.95768,-4.00782 -3.29492,-5.39258 -1.33724,-1.38475 -3.05282,-2.35351 -4.96289,-2.35351 z m 0,3.96875 c 0.59726,0 1.27207,0.27558 2.10742,1.14062 0.83536,0.86504 1.7218,2.28885 2.47657,4.13672 1.50952,3.69574 2.51171,9.04913 2.51171,14.96875 0,5.91962 -1.00219,11.27301 -2.51171,14.96875 -0.75477,1.84787 -1.64121,3.27168 -2.47657,4.13672 -0.83535,0.86504 -1.51016,1.14062 -2.10742,1.14062 -0.59726,0 -1.27011,-0.27558 -2.10547,-1.14062 -0.83535,-0.86504 -1.7218,-2.28885 -2.47656,-4.13672 -1.50953,-3.69574 -2.51172,-9.04913 -2.51172,-14.96875 0,-5.91962 1.00219,-11.27301 2.51172,-14.96875 0.75476,-1.84787 1.64121,-3.27168 2.47656,-4.13672 0.83536,-0.86504 1.50821,-1.14062 2.10547,-1.14062 z"
             id="path5018" />
          <path
             style="color:#000000;fill:#d4aa00;stroke-width:3.96875;stroke-linecap:round;stroke-linejoin:round;-inkscape-stroke:none;paint-order:stroke markers fill"
             d="m -174.93101,227.94327 a 9.0798559,22.229988 0 0 1 -9.07985,22.22999 9.0798559,22.229988 0 0 1 -9.07986,-22.22999 9.0798559,22.229988 0 0 1 9.07986,-22.22999 9.0798559,22.229988 0 0 1 9.07985,22.22999 z"
             id="path5020" />
        </g>
      </g>
      <g
         id="g5046"
         transform="matrix(0.8095089,0,0,0.8095089,16.399578,-12.420451)">
        <g
           id="g5030">
          <path
             style="color:#000000;fill:#806600;stroke-linecap:round;stroke-linejoin:round;-inkscape-stroke:none;paint-order:stroke markers fill"
             d="m 227.94336,176.06836 c -14.35485,0.003 -27.4853,2.99138 -35.26367,8.34375 h -4.59961 a 1.9845734,1.9845734 0 0 0 -1.98438,1.98437 v 7.9375 c -1e-5,2.90445 1.46325,5.56677 3.74024,7.76563 2.27699,2.19886 5.39956,4.04398 9.16992,5.58398 7.54072,3.08001 17.71086,4.91604 28.9375,4.91602 11.22664,2e-5 21.39678,-1.83601 28.9375,-4.91602 3.77036,-1.54 6.89293,-3.38512 9.16992,-5.58398 2.27699,-2.19886 3.73829,-4.86118 3.73828,-7.76563 v -7.9375 a 1.9845734,1.9845734 0 0 0 -1.98437,-1.98437 h -4.58399 c -7.78133,-5.3544 -20.91703,-8.34343 -35.27734,-8.34375 z m 0,3.96875 c 14.15295,3.2e-4 27.23533,3.28244 33.63086,7.96094 a 1.9845734,1.9845734 0 0 0 1.17187,0.38281 h 3.07422 v 5.95312 c 10e-6,1.59163 -0.76811,3.21319 -2.52539,4.91016 -1.75727,1.69698 -4.47275,3.35922 -7.91601,4.76563 -6.88654,2.8128 -16.64695,4.62111 -27.43555,4.62109 -10.7886,2e-5 -20.55096,-1.80829 -27.4375,-4.62109 -3.44327,-1.40641 -6.15679,-3.06865 -7.91406,-4.76563 -1.75728,-1.69697 -2.52735,-3.31853 -2.52735,-4.91016 v -5.95312 h 3.0918 a 1.9845734,1.9845734 0 0 0 1.17188,-0.38281 c 6.39314,-4.67676 19.46754,-7.95845 33.61523,-7.96094 z"
             id="path5026" />
          <path
             style="color:#000000;fill:#aa8800;stroke-width:3.96875;stroke-linecap:round;stroke-linejoin:round;-inkscape-stroke:none;paint-order:stroke markers fill"
             d="m 227.94319,178.05269 a 39.862003,16.281664 0 0 0 -34.78702,8.3442 h -5.07515 v 7.9375 a 39.862003,16.281664 0 0 0 39.86217,16.28169 39.862003,16.281664 0 0 0 39.86216,-16.28169 v -7.9375 h -5.06015 a 39.862003,16.281664 0 0 0 -34.80201,-8.3442 z"
             id="path5028" />
        </g>
        <g
           id="g5036"
           transform="rotate(-90)">
          <path
             style="color:#000000;fill:#806600;stroke-linecap:round;stroke-linejoin:round;-inkscape-stroke:none;paint-order:stroke markers fill"
             d="m -186.39648,186.09766 c -2.90443,0 -5.56678,1.4613 -7.76563,3.73828 -2.19885,2.27698 -4.04398,5.39958 -5.58398,9.16992 -3.08,7.54069 -4.91602,17.7109 -4.91602,28.9375 0,11.2266 1.83602,21.39681 4.91602,28.9375 1.54,3.77034 3.38513,6.89294 5.58398,9.16992 2.19885,2.27698 4.8612,3.73828 7.76563,3.73828 2.90443,0 5.56482,-1.4613 7.76367,-3.73828 2.19885,-2.27698 4.04594,-5.39958 5.58593,-9.16992 3.08,-7.54069 4.91602,-17.7109 4.91602,-28.9375 0,-11.2266 -1.83602,-21.39681 -4.91602,-28.9375 -1.53999,-3.77034 -3.38708,-6.89294 -5.58593,-9.16992 -2.19885,-2.27698 -4.85924,-3.73828 -7.76367,-3.73828 z m 0,3.96875 c 1.59162,0 3.21318,0.76812 4.91015,2.52539 1.69697,1.75726 3.35923,4.47276 4.76563,7.91601 2.81279,6.88651 4.62109,16.64699 4.62109,27.43555 0,10.78856 -1.8083,20.54904 -4.62109,27.43555 -1.4064,3.44325 -3.06866,6.15874 -4.76563,7.91601 -1.69697,1.75727 -3.31853,2.52539 -4.91015,2.52539 -1.59163,0 -3.21319,-0.76812 -4.91016,-2.52539 -1.69697,-1.75727 -3.35923,-4.47276 -4.76563,-7.91601 -2.81279,-6.88651 -4.62109,-16.64699 -4.62109,-27.43555 0,-10.78856 1.8083,-20.54904 4.62109,-27.43555 1.4064,-3.44325 3.06866,-6.15875 4.76563,-7.91601 1.69697,-1.75727 3.31853,-2.52539 4.91016,-2.52539 z"
             id="path5032" />
          <path
             style="color:#000000;fill:#ffdd55;stroke-width:3.96875;stroke-linecap:round;stroke-linejoin:round;-inkscape-stroke:none;paint-order:stroke markers fill"
             d="m -170.11531,227.94327 a 16.281664,39.862003 0 0 1 -16.28166,39.862 16.281664,39.862003 0 0 1 -16.28167,-39.862 16.281664,39.862003 0 0 1 16.28167,-39.86201 16.281664,39.862003 0 0 1 16.28166,39.86201 z"
             id="path5034" />
        </g>
        <path
           id="path5038"
           style="fill:#806600;fill-opacity:1;stroke:none;stroke-width:75.0002;stroke-linecap:round;stroke-linejoin:round;stroke-miterlimit:4;stroke-dasharray:none;stroke-opacity:1;paint-order:stroke markers fill"
           d="m 730.03906,734.49414 v 30.00195 a 150.65954,61.536998 0 0 0 5.30469,3.58985 v -30.00196 a 150.65954,61.536996 0 0 1 -5.30469,-3.58984 z m 12,7.48242 v 30 a 150.65954,61.536998 0 0 0 5.30469,2.64063 v -30 a 150.65954,61.536996 0 0 1 -5.30469,-2.64063 z m 10,4.74414 v 30 a 150.65954,61.536998 0 0 0 5.30469,2.1875 v -30 a 150.65954,61.536996 0 0 1 -5.30469,-2.1875 z m 10,3.98242 v 30 a 150.65954,61.536998 0 0 0 5.30469,1.78516 v -30 a 150.65954,61.536996 0 0 1 -5.30469,-1.78516 z m 14,4.43555 v 30 a 150.65954,61.536998 0 0 0 5.30469,1.41602 v -30 a 150.65954,61.536996 0 0 1 -5.30469,-1.41602 z m 12,3.05078 v 30 a 150.65954,61.536998 0 0 0 5.30469,1.15821 v -30 a 150.65954,61.536996 0 0 1 -5.30469,-1.15821 z m 12,2.44922 v 30 a 150.65954,61.536998 0 0 0 5.30469,0.9336 v -30 a 150.65954,61.536996 0 0 1 -5.30469,-0.9336 z m 12,1.96289 v 30 a 150.65954,61.536998 0 0 0 5.30469,0.68946 v -30 a 150.65954,61.536996 0 0 1 -5.30469,-0.68946 z m 10,1.27149 v 29.99804 a 150.65954,61.536998 0 0 0 5.30469,0.51953 v -29.99804 a 150.65954,61.536996 0 0 1 -5.30469,-0.51953 z m 11.99805,1.10351 v 30 a 150.65954,61.536998 0 0 0 5.30664,0.35742 v -30 a 150.65954,61.536996 0 0 1 -5.30664,-0.35742 z m 14,0.77539 v 30 a 150.65954,61.536998 0 0 0 5.30469,0.16797 v -30 a 150.65954,61.536996 0 0 1 -5.30469,-0.16797 z"
           transform="scale(0.26458333)" />
        <g
           id="g5044"
           transform="rotate(-90)">
          <path
             style="color:#000000;fill:#806600;stroke-linecap:round;stroke-linejoin:round;-inkscape-stroke:none;paint-order:stroke markers fill"
             d="m -184.01172,203.72852 c -1.91007,0 -3.6237,0.96876 -4.96094,2.35351 -1.33723,1.38476 -2.40655,3.21762 -3.29492,5.39258 -1.77673,4.34992 -2.80664,10.1111 -2.80664,16.46875 0,6.35765 1.02991,12.11883 2.80664,16.46875 0.88837,2.17496 1.95769,4.00782 3.29492,5.39258 1.33724,1.38475 3.05087,2.35351 4.96094,2.35351 1.91007,0 3.62565,-0.96876 4.96289,-2.35351 1.33724,-1.38476 2.40656,-3.21762 3.29492,-5.39258 1.77673,-4.34992 2.80664,-10.1111 2.80664,-16.46875 0,-6.35765 -1.02991,-12.11883 -2.80664,-16.46875 -0.88836,-2.17496 -1.95768,-4.00782 -3.29492,-5.39258 -1.33724,-1.38475 -3.05282,-2.35351 -4.96289,-2.35351 z m 0,3.96875 c 0.59726,0 1.27207,0.27558 2.10742,1.14062 0.83536,0.86504 1.7218,2.28885 2.47657,4.13672 1.50952,3.69574 2.51171,9.04913 2.51171,14.96875 0,5.91962 -1.00219,11.27301 -2.51171,14.96875 -0.75477,1.84787 -1.64121,3.27168 -2.47657,4.13672 -0.83535,0.86504 -1.51016,1.14062 -2.10742,1.14062 -0.59726,0 -1.27011,-0.27558 -2.10547,-1.14062 -0.83535,-0.86504 -1.7218,-2.28885 -2.47656,-4.13672 -1.50953,-3.69574 -2.51172,-9.04913 -2.51172,-14.96875 0,-5.91962 1.00219,-11.27301 2.51172,-14.96875 0.75476,-1.84787 1.64121,-3.27168 2.47656,-4.13672 0.83536,-0.86504 1.50821,-1.14062 2.10547,-1.14062 z"
             id="path5040" />
          <path
             style="color:#000000;fill:#d4aa00;stroke-width:3.96875;stroke-linecap:round;stroke-linejoin:round;-inkscape-stroke:none;paint-order:stroke markers fill"
             d="m -174.93101,227.94327 a 9.0798559,22.229988 0 0 1 -9.07985,22.22999 9.0798559,22.229988 0 0 1 -9.07986,-22.22999 9.0798559,22.229988 0 0 1 9.07986,-22.22999 9.0798559,22.229988 0 0 1 9.07985,22.22999 z"
             id="path5042" />
        </g>
      </g>
      <g
         id="g5068"
         transform="matrix(0.8095089,0,0,0.8095089,32.274579,-12.420451)">
        <g
           id="g5052">
          <path
             style="color:#000000;fill:#806600;stroke-linecap:round;stroke-linejoin:round;-inkscape-stroke:none;paint-order:stroke markers fill"
             d="m 227.94336,176.06836 c -14.35485,0.003 -27.4853,2.99138 -35.26367,8.34375 h -4.59961 a 1.9845734,1.9845734 0 0 0 -1.98438,1.98437 v 7.9375 c -1e-5,2.90445 1.46325,5.56677 3.74024,7.76563 2.27699,2.19886 5.39956,4.04398 9.16992,5.58398 7.54072,3.08001 17.71086,4.91604 28.9375,4.91602 11.22664,2e-5 21.39678,-1.83601 28.9375,-4.91602 3.77036,-1.54 6.89293,-3.38512 9.16992,-5.58398 2.27699,-2.19886 3.73829,-4.86118 3.73828,-7.76563 v -7.9375 a 1.9845734,1.9845734 0 0 0 -1.98437,-1.98437 h -4.58399 c -7.78133,-5.3544 -20.91703,-8.34343 -35.27734,-8.34375 z m 0,3.96875 c 14.15295,3.2e-4 27.23533,3.28244 33.63086,7.96094 a 1.9845734,1.9845734 0 0 0 1.17187,0.38281 h 3.07422 v 5.95312 c 10e-6,1.59163 -0.76811,3.21319 -2.52539,4.91016 -1.75727,1.69698 -4.47275,3.35922 -7.91601,4.76563 -6.88654,2.8128 -16.64695,4.62111 -27.43555,4.62109 -10.7886,2e-5 -20.55096,-1.80829 -27.4375,-4.62109 -3.44327,-1.40641 -6.15679,-3.06865 -7.91406,-4.76563 -1.75728,-1.69697 -2.52735,-3.31853 -2.52735,-4.91016 v -5.95312 h 3.0918 a 1.9845734,1.9845734 0 0 0 1.17188,-0.38281 c 6.39314,-4.67676 19.46754,-7.95845 33.61523,-7.96094 z"
             id="path5048" />
          <path
             style="color:#000000;fill:#aa8800;stroke-width:3.96875;stroke-linecap:round;stroke-linejoin:round;-inkscape-stroke:none;paint-order:stroke markers fill"
             d="m 227.94319,178.05269 a 39.862003,16.281664 0 0 0 -34.78702,8.3442 h -5.07515 v 7.9375 a 39.862003,16.281664 0 0 0 39.86217,16.28169 39.862003,16.281664 0 0 0 39.86216,-16.28169 v -7.9375 h -5.06015 a 39.862003,16.281664 0 0 0 -34.80201,-8.3442 z"
             id="path5050" />
        </g>
        <g
           id="g5058"
           transform="rotate(-90)">
          <path
             style="color:#000000;fill:#806600;stroke-linecap:round;stroke-linejoin:round;-inkscape-stroke:none;paint-order:stroke markers fill"
             d="m -186.39648,186.09766 c -2.90443,0 -5.56678,1.4613 -7.76563,3.73828 -2.19885,2.27698 -4.04398,5.39958 -5.58398,9.16992 -3.08,7.54069 -4.91602,17.7109 -4.91602,28.9375 0,11.2266 1.83602,21.39681 4.91602,28.9375 1.54,3.77034 3.38513,6.89294 5.58398,9.16992 2.19885,2.27698 4.8612,3.73828 7.76563,3.73828 2.90443,0 5.56482,-1.4613 7.76367,-3.73828 2.19885,-2.27698 4.04594,-5.39958 5.58593,-9.16992 3.08,-7.54069 4.91602,-17.7109 4.91602,-28.9375 0,-11.2266 -1.83602,-21.39681 -4.91602,-28.9375 -1.53999,-3.77034 -3.38708,-6.89294 -5.58593,-9.16992 -2.19885,-2.27698 -4.85924,-3.73828 -7.76367,-3.73828 z m 0,3.96875 c 1.59162,0 3.21318,0.76812 4.91015,2.52539 1.69697,1.75726 3.35923,4.47276 4.76563,7.91601 2.81279,6.88651 4.62109,16.64699 4.62109,27.43555 0,10.78856 -1.8083,20.54904 -4.62109,27.43555 -1.4064,3.44325 -3.06866,6.15874 -4.76563,7.91601 -1.69697,1.75727 -3.31853,2.52539 -4.91015,2.52539 -1.59163,0 -3.21319,-0.76812 -4.91016,-2.52539 -1.69697,-1.75727 -3.35923,-4.47276 -4.76563,-7.91601 -2.81279,-6.88651 -4.62109,-16.64699 -4.62109,-27.43555 0,-10.78856 1.8083,-20.54904 4.62109,-27.43555 1.4064,-3.44325 3.06866,-6.15875 4.76563,-7.91601 1.69697,-1.75727 3.31853,-2.52539 4.91016,-2.52539 z"
             id="path5054" />
          <path
             style="color:#000000;fill:#ffdd55;stroke-width:3.96875;stroke-linecap:round;stroke-linejoin:round;-inkscape-stroke:none;paint-order:stroke markers fill"
             d="m -170.11531,227.94327 a 16.281664,39.862003 0 0 1 -16.28166,39.862 16.281664,39.862003 0 0 1 -16.28167,-39.862 16.281664,39.862003 0 0 1 16.28167,-39.86201 16.281664,39.862003 0 0 1 16.28166,39.86201 z"
             id="path5056" />
        </g>
        <path
           id="path5060"
           style="fill:#806600;fill-opacity:1;stroke:none;stroke-width:75.0002;stroke-linecap:round;stroke-linejoin:round;stroke-miterlimit:4;stroke-dasharray:none;stroke-opacity:1;paint-order:stroke markers fill"
           d="m 730.03906,734.49414 v 30.00195 a 150.65954,61.536998 0 0 0 5.30469,3.58985 v -30.00196 a 150.65954,61.536996 0 0 1 -5.30469,-3.58984 z m 12,7.48242 v 30 a 150.65954,61.536998 0 0 0 5.30469,2.64063 v -30 a 150.65954,61.536996 0 0 1 -5.30469,-2.64063 z m 10,4.74414 v 30 a 150.65954,61.536998 0 0 0 5.30469,2.1875 v -30 a 150.65954,61.536996 0 0 1 -5.30469,-2.1875 z m 10,3.98242 v 30 a 150.65954,61.536998 0 0 0 5.30469,1.78516 v -30 a 150.65954,61.536996 0 0 1 -5.30469,-1.78516 z m 14,4.43555 v 30 a 150.65954,61.536998 0 0 0 5.30469,1.41602 v -30 a 150.65954,61.536996 0 0 1 -5.30469,-1.41602 z m 12,3.05078 v 30 a 150.65954,61.536998 0 0 0 5.30469,1.15821 v -30 a 150.65954,61.536996 0 0 1 -5.30469,-1.15821 z m 12,2.44922 v 30 a 150.65954,61.536998 0 0 0 5.30469,0.9336 v -30 a 150.65954,61.536996 0 0 1 -5.30469,-0.9336 z m 12,1.96289 v 30 a 150.65954,61.536998 0 0 0 5.30469,0.68946 v -30 a 150.65954,61.536996 0 0 1 -5.30469,-0.68946 z m 10,1.27149 v 29.99804 a 150.65954,61.536998 0 0 0 5.30469,0.51953 v -29.99804 a 150.65954,61.536996 0 0 1 -5.30469,-0.51953 z m 11.99805,1.10351 v 30 a 150.65954,61.536998 0 0 0 5.30664,0.35742 v -30 a 150.65954,61.536996 0 0 1 -5.30664,-0.35742 z m 14,0.77539 v 30 a 150.65954,61.536998 0 0 0 5.30469,0.16797 v -30 a 150.65954,61.536996 0 0 1 -5.30469,-0.16797 z"
           transform="scale(0.26458333)" />
        <g
           id="g5066"
           transform="rotate(-90)">
          <path
             style="color:#000000;fill:#806600;stroke-linecap:round;stroke-linejoin:round;-inkscape-stroke:none;paint-order:stroke markers fill"
             d="m -184.01172,203.72852 c -1.91007,0 -3.6237,0.96876 -4.96094,2.35351 -1.33723,1.38476 -2.40655,3.21762 -3.29492,5.39258 -1.77673,4.34992 -2.80664,10.1111 -2.80664,16.46875 0,6.35765 1.02991,12.11883 2.80664,16.46875 0.88837,2.17496 1.95769,4.00782 3.29492,5.39258 1.33724,1.38475 3.05087,2.35351 4.96094,2.35351 1.91007,0 3.62565,-0.96876 4.96289,-2.35351 1.33724,-1.38476 2.40656,-3.21762 3.29492,-5.39258 1.77673,-4.34992 2.80664,-10.1111 2.80664,-16.46875 0,-6.35765 -1.02991,-12.11883 -2.80664,-16.46875 -0.88836,-2.17496 -1.95768,-4.00782 -3.29492,-5.39258 -1.33724,-1.38475 -3.05282,-2.35351 -4.96289,-2.35351 z m 0,3.96875 c 0.59726,0 1.27207,0.27558 2.10742,1.14062 0.83536,0.86504 1.7218,2.28885 2.47657,4.13672 1.50952,3.69574 2.51171,9.04913 2.51171,14.96875 0,5.91962 -1.00219,11.27301 -2.51171,14.96875 -0.75477,1.84787 -1.64121,3.27168 -2.47657,4.13672 -0.83535,0.86504 -1.51016,1.14062 -2.10742,1.14062 -0.59726,0 -1.27011,-0.27558 -2.10547,-1.14062 -0.83535,-0.86504 -1.7218,-2.28885 -2.47656,-4.13672 -1.50953,-3.69574 -2.51172,-9.04913 -2.51172,-14.96875 0,-5.91962 1.00219,-11.27301 2.51172,-14.96875 0.75476,-1.84787 1.64121,-3.27168 2.47656,-4.13672 0.83536,-0.86504 1.50821,-1.14062 2.10547,-1.14062 z"
             id="path5062" />
          <path
             style="color:#000000;fill:#d4aa00;stroke-width:3.96875;stroke-linecap:round;stroke-linejoin:round;-inkscape-stroke:none;paint-order:stroke markers fill"
             d="m -174.93101,227.94327 a 9.0798559,22.229988 0 0 1 -9.07985,22.22999 9.0798559,22.229988 0 0 1 -9.07986,-22.22999 9.0798559,22.229988 0 0 1 9.07986,-22.22999 9.0798559,22.229988 0 0 1 9.07985,22.22999 z"
             id="path5064" />
        </g>
      </g>
      <g
         id="g5090"
         transform="matrix(0.40475445,0.70105527,-0.70105527,0.40475445,300.3257,-58.127816)">
        <g
           id="g5074">
          <path
             style="color:#000000;fill:#806600;stroke-linecap:round;stroke-linejoin:round;-inkscape-stroke:none;paint-order:stroke markers fill"
             d="m 227.94336,176.06836 c -14.35485,0.003 -27.4853,2.99138 -35.26367,8.34375 h -4.59961 a 1.9845734,1.9845734 0 0 0 -1.98438,1.98437 v 7.9375 c -1e-5,2.90445 1.46325,5.56677 3.74024,7.76563 2.27699,2.19886 5.39956,4.04398 9.16992,5.58398 7.54072,3.08001 17.71086,4.91604 28.9375,4.91602 11.22664,2e-5 21.39678,-1.83601 28.9375,-4.91602 3.77036,-1.54 6.89293,-3.38512 9.16992,-5.58398 2.27699,-2.19886 3.73829,-4.86118 3.73828,-7.76563 v -7.9375 a 1.9845734,1.9845734 0 0 0 -1.98437,-1.98437 h -4.58399 c -7.78133,-5.3544 -20.91703,-8.34343 -35.27734,-8.34375 z m 0,3.96875 c 14.15295,3.2e-4 27.23533,3.28244 33.63086,7.96094 a 1.9845734,1.9845734 0 0 0 1.17187,0.38281 h 3.07422 v 5.95312 c 10e-6,1.59163 -0.76811,3.21319 -2.52539,4.91016 -1.75727,1.69698 -4.47275,3.35922 -7.91601,4.76563 -6.88654,2.8128 -16.64695,4.62111 -27.43555,4.62109 -10.7886,2e-5 -20.55096,-1.80829 -27.4375,-4.62109 -3.44327,-1.40641 -6.15679,-3.06865 -7.91406,-4.76563 -1.75728,-1.69697 -2.52735,-3.31853 -2.52735,-4.91016 v -5.95312 h 3.0918 a 1.9845734,1.9845734 0 0 0 1.17188,-0.38281 c 6.39314,-4.67676 19.46754,-7.95845 33.61523,-7.96094 z"
             id="path5070" />
          <path
             style="color:#000000;fill:#aa8800;stroke-width:3.96875;stroke-linecap:round;stroke-linejoin:round;-inkscape-stroke:none;paint-order:stroke markers fill"
             d="m 227.94319,178.05269 a 39.862003,16.281664 0 0 0 -34.78702,8.3442 h -5.07515 v 7.9375 a 39.862003,16.281664 0 0 0 39.86217,16.28169 39.862003,16.281664 0 0 0 39.86216,-16.28169 v -7.9375 h -5.06015 a 39.862003,16.281664 0 0 0 -34.80201,-8.3442 z"
             id="path5072" />
        </g>
        <g
           id="g5080"
           transform="rotate(-90)">
          <path
             style="color:#000000;fill:#806600;stroke-linecap:round;stroke-linejoin:round;-inkscape-stroke:none;paint-order:stroke markers fill"
             d="m -186.39648,186.09766 c -2.90443,0 -5.56678,1.4613 -7.76563,3.73828 -2.19885,2.27698 -4.04398,5.39958 -5.58398,9.16992 -3.08,7.54069 -4.91602,17.7109 -4.91602,28.9375 0,11.2266 1.83602,21.39681 4.91602,28.9375 1.54,3.77034 3.38513,6.89294 5.58398,9.16992 2.19885,2.27698 4.8612,3.73828 7.76563,3.73828 2.90443,0 5.56482,-1.4613 7.76367,-3.73828 2.19885,-2.27698 4.04594,-5.39958 5.58593,-9.16992 3.08,-7.54069 4.91602,-17.7109 4.91602,-28.9375 0,-11.2266 -1.83602,-21.39681 -4.91602,-28.9375 -1.53999,-3.77034 -3.38708,-6.89294 -5.58593,-9.16992 -2.19885,-2.27698 -4.85924,-3.73828 -7.76367,-3.73828 z m 0,3.96875 c 1.59162,0 3.21318,0.76812 4.91015,2.52539 1.69697,1.75726 3.35923,4.47276 4.76563,7.91601 2.81279,6.88651 4.62109,16.64699 4.62109,27.43555 0,10.78856 -1.8083,20.54904 -4.62109,27.43555 -1.4064,3.44325 -3.06866,6.15874 -4.76563,7.91601 -1.69697,1.75727 -3.31853,2.52539 -4.91015,2.52539 -1.59163,0 -3.21319,-0.76812 -4.91016,-2.52539 -1.69697,-1.75727 -3.35923,-4.47276 -4.76563,-7.91601 -2.81279,-6.88651 -4.62109,-16.64699 -4.62109,-27.43555 0,-10.78856 1.8083,-20.54904 4.62109,-27.43555 1.4064,-3.44325 3.06866,-6.15875 4.76563,-7.91601 1.69697,-1.75727 3.31853,-2.52539 4.91016,-2.52539 z"
             id="path5076" />
          <path
             style="color:#000000;fill:#ffdd55;stroke-width:3.96875;stroke-linecap:round;stroke-linejoin:round;-inkscape-stroke:none;paint-order:stroke markers fill"
             d="m -170.11531,227.94327 a 16.281664,39.862003 0 0 1 -16.28166,39.862 16.281664,39.862003 0 0 1 -16.28167,-39.862 16.281664,39.862003 0 0 1 16.28167,-39.86201 16.281664,39.862003 0 0 1 16.28166,39.86201 z"
             id="path5078" />
        </g>
        <path
           id="path5082"
           style="fill:#806600;fill-opacity:1;stroke:none;stroke-width:75.0002;stroke-linecap:round;stroke-linejoin:round;stroke-miterlimit:4;stroke-dasharray:none;stroke-opacity:1;paint-order:stroke markers fill"
           d="m 730.03906,734.49414 v 30.00195 a 150.65954,61.536998 0 0 0 5.30469,3.58985 v -30.00196 a 150.65954,61.536996 0 0 1 -5.30469,-3.58984 z m 12,7.48242 v 30 a 150.65954,61.536998 0 0 0 5.30469,2.64063 v -30 a 150.65954,61.536996 0 0 1 -5.30469,-2.64063 z m 10,4.74414 v 30 a 150.65954,61.536998 0 0 0 5.30469,2.1875 v -30 a 150.65954,61.536996 0 0 1 -5.30469,-2.1875 z m 10,3.98242 v 30 a 150.65954,61.536998 0 0 0 5.30469,1.78516 v -30 a 150.65954,61.536996 0 0 1 -5.30469,-1.78516 z m 14,4.43555 v 30 a 150.65954,61.536998 0 0 0 5.30469,1.41602 v -30 a 150.65954,61.536996 0 0 1 -5.30469,-1.41602 z m 12,3.05078 v 30 a 150.65954,61.536998 0 0 0 5.30469,1.15821 v -30 a 150.65954,61.536996 0 0 1 -5.30469,-1.15821 z m 12,2.44922 v 30 a 150.65954,61.536998 0 0 0 5.30469,0.9336 v -30 a 150.65954,61.536996 0 0 1 -5.30469,-0.9336 z m 12,1.96289 v 30 a 150.65954,61.536998 0 0 0 5.30469,0.68946 v -30 a 150.65954,61.536996 0 0 1 -5.30469,-0.68946 z m 10,1.27149 v 29.99804 a 150.65954,61.536998 0 0 0 5.30469,0.51953 v -29.99804 a 150.65954,61.536996 0 0 1 -5.30469,-0.51953 z m 11.99805,1.10351 v 30 a 150.65954,61.536998 0 0 0 5.30664,0.35742 v -30 a 150.65954,61.536996 0 0 1 -5.30664,-0.35742 z m 14,0.77539 v 30 a 150.65954,61.536998 0 0 0 5.30469,0.16797 v -30 a 150.65954,61.536996 0 0 1 -5.30469,-0.16797 z"
           transform="scale(0.26458333)" />
        <g
           id="g5088"
           transform="rotate(-90)">
          <path
             style="color:#000000;fill:#806600;stroke-linecap:round;stroke-linejoin:round;-inkscape-stroke:none;paint-order:stroke markers fill"
             d="m -184.01172,203.72852 c -1.91007,0 -3.6237,0.96876 -4.96094,2.35351 -1.33723,1.38476 -2.40655,3.21762 -3.29492,5.39258 -1.77673,4.34992 -2.80664,10.1111 -2.80664,16.46875 0,6.35765 1.02991,12.11883 2.80664,16.46875 0.88837,2.17496 1.95769,4.00782 3.29492,5.39258 1.33724,1.38475 3.05087,2.35351 4.96094,2.35351 1.91007,0 3.62565,-0.96876 4.96289,-2.35351 1.33724,-1.38476 2.40656,-3.21762 3.29492,-5.39258 1.77673,-4.34992 2.80664,-10.1111 2.80664,-16.46875 0,-6.35765 -1.02991,-12.11883 -2.80664,-16.46875 -0.88836,-2.17496 -1.95768,-4.00782 -3.29492,-5.39258 -1.33724,-1.38475 -3.05282,-2.35351 -4.96289,-2.35351 z m 0,3.96875 c 0.59726,0 1.27207,0.27558 2.10742,1.14062 0.83536,0.86504 1.7218,2.28885 2.47657,4.13672 1.50952,3.69574 2.51171,9.04913 2.51171,14.96875 0,5.91962 -1.00219,11.27301 -2.51171,14.96875 -0.75477,1.84787 -1.64121,3.27168 -2.47657,4.13672 -0.83535,0.86504 -1.51016,1.14062 -2.10742,1.14062 -0.59726,0 -1.27011,-0.27558 -2.10547,-1.14062 -0.83535,-0.86504 -1.7218,-2.28885 -2.47656,-4.13672 -1.50953,-3.69574 -2.51172,-9.04913 -2.51172,-14.96875 0,-5.91962 1.00219,-11.27301 2.51172,-14.96875 0.75476,-1.84787 1.64121,-3.27168 2.47656,-4.13672 0.83536,-0.86504 1.50821,-1.14062 2.10547,-1.14062 z"
             id="path5084" />
          <path
             style="color:#000000;fill:#d4aa00;stroke-width:3.96875;stroke-linecap:round;stroke-linejoin:round;-inkscape-stroke:none;paint-order:stroke markers fill"
             d="m -174.93101,227.94327 a 9.0798559,22.229988 0 0 1 -9.07985,22.22999 9.0798559,22.229988 0 0 1 -9.07986,-22.22999 9.0798559,22.229988 0 0 1 9.07986,-22.22999 9.0798559,22.229988 0 0 1 9.07985,22.22999 z"
             id="path5086" />
        </g>
      </g>
      <g
         id="g5112"
         transform="matrix(0.57240923,0.57240923,-0.57240923,0.57240923,250.84929,-56.486177)">
        <g
           id="g5096">
          <path
             style="color:#000000;fill:#806600;stroke-linecap:round;stroke-linejoin:round;-inkscape-stroke:none;paint-order:stroke markers fill"
             d="m 227.94336,176.06836 c -14.35485,0.003 -27.4853,2.99138 -35.26367,8.34375 h -4.59961 a 1.9845734,1.9845734 0 0 0 -1.98438,1.98437 v 7.9375 c -1e-5,2.90445 1.46325,5.56677 3.74024,7.76563 2.27699,2.19886 5.39956,4.04398 9.16992,5.58398 7.54072,3.08001 17.71086,4.91604 28.9375,4.91602 11.22664,2e-5 21.39678,-1.83601 28.9375,-4.91602 3.77036,-1.54 6.89293,-3.38512 9.16992,-5.58398 2.27699,-2.19886 3.73829,-4.86118 3.73828,-7.76563 v -7.9375 a 1.9845734,1.9845734 0 0 0 -1.98437,-1.98437 h -4.58399 c -7.78133,-5.3544 -20.91703,-8.34343 -35.27734,-8.34375 z m 0,3.96875 c 14.15295,3.2e-4 27.23533,3.28244 33.63086,7.96094 a 1.9845734,1.9845734 0 0 0 1.17187,0.38281 h 3.07422 v 5.95312 c 10e-6,1.59163 -0.76811,3.21319 -2.52539,4.91016 -1.75727,1.69698 -4.47275,3.35922 -7.91601,4.76563 -6.88654,2.8128 -16.64695,4.62111 -27.43555,4.62109 -10.7886,2e-5 -20.55096,-1.80829 -27.4375,-4.62109 -3.44327,-1.40641 -6.15679,-3.06865 -7.91406,-4.76563 -1.75728,-1.69697 -2.52735,-3.31853 -2.52735,-4.91016 v -5.95312 h 3.0918 a 1.9845734,1.9845734 0 0 0 1.17188,-0.38281 c 6.39314,-4.67676 19.46754,-7.95845 33.61523,-7.96094 z"
             id="path5092" />
          <path
             style="color:#000000;fill:#aa8800;stroke-width:3.96875;stroke-linecap:round;stroke-linejoin:round;-inkscape-stroke:none;paint-order:stroke markers fill"
             d="m 227.94319,178.05269 a 39.862003,16.281664 0 0 0 -34.78702,8.3442 h -5.07515 v 7.9375 a 39.862003,16.281664 0 0 0 39.86217,16.28169 39.862003,16.281664 0 0 0 39.86216,-16.28169 v -7.9375 h -5.06015 a 39.862003,16.281664 0 0 0 -34.80201,-8.3442 z"
             id="path5094" />
        </g>
        <g
           id="g5102"
           transform="rotate(-90)">
          <path
             style="color:#000000;fill:#806600;stroke-linecap:round;stroke-linejoin:round;-inkscape-stroke:none;paint-order:stroke markers fill"
             d="m -186.39648,186.09766 c -2.90443,0 -5.56678,1.4613 -7.76563,3.73828 -2.19885,2.27698 -4.04398,5.39958 -5.58398,9.16992 -3.08,7.54069 -4.91602,17.7109 -4.91602,28.9375 0,11.2266 1.83602,21.39681 4.91602,28.9375 1.54,3.77034 3.38513,6.89294 5.58398,9.16992 2.19885,2.27698 4.8612,3.73828 7.76563,3.73828 2.90443,0 5.56482,-1.4613 7.76367,-3.73828 2.19885,-2.27698 4.04594,-5.39958 5.58593,-9.16992 3.08,-7.54069 4.91602,-17.7109 4.91602,-28.9375 0,-11.2266 -1.83602,-21.39681 -4.91602,-28.9375 -1.53999,-3.77034 -3.38708,-6.89294 -5.58593,-9.16992 -2.19885,-2.27698 -4.85924,-3.73828 -7.76367,-3.73828 z m 0,3.96875 c 1.59162,0 3.21318,0.76812 4.91015,2.52539 1.69697,1.75726 3.35923,4.47276 4.76563,7.91601 2.81279,6.88651 4.62109,16.64699 4.62109,27.43555 0,10.78856 -1.8083,20.54904 -4.62109,27.43555 -1.4064,3.44325 -3.06866,6.15874 -4.76563,7.91601 -1.69697,1.75727 -3.31853,2.52539 -4.91015,2.52539 -1.59163,0 -3.21319,-0.76812 -4.91016,-2.52539 -1.69697,-1.75727 -3.35923,-4.47276 -4.76563,-7.91601 -2.81279,-6.88651 -4.62109,-16.64699 -4.62109,-27.43555 0,-10.78856 1.8083,-20.54904 4.62109,-27.43555 1.4064,-3.44325 3.06866,-6.15875 4.76563,-7.91601 1.69697,-1.75727 3.31853,-2.52539 4.91016,-2.52539 z"
             id="path5098" />
          <path
             style="color:#000000;fill:#ffdd55;stroke-width:3.96875;stroke-linecap:round;stroke-linejoin:round;-inkscape-stroke:none;paint-order:stroke markers fill"
             d="m -170.11531,227.94327 a 16.281664,39.862003 0 0 1 -16.28166,39.862 16.281664,39.862003 0 0 1 -16.28167,-39.862 16.281664,39.862003 0 0 1 16.28167,-39.86201 16.281664,39.862003 0 0 1 16.28166,39.86201 z"
             id="path5100" />
        </g>
        <path
           id="path5104"
           style="fill:#806600;fill-opacity:1;stroke:none;stroke-width:75.0002;stroke-linecap:round;stroke-linejoin:round;stroke-miterlimit:4;stroke-dasharray:none;stroke-opacity:1;paint-order:stroke markers fill"
           d="m 730.03906,734.49414 v 30.00195 a 150.65954,61.536998 0 0 0 5.30469,3.58985 v -30.00196 a 150.65954,61.536996 0 0 1 -5.30469,-3.58984 z m 12,7.48242 v 30 a 150.65954,61.536998 0 0 0 5.30469,2.64063 v -30 a 150.65954,61.536996 0 0 1 -5.30469,-2.64063 z m 10,4.74414 v 30 a 150.65954,61.536998 0 0 0 5.30469,2.1875 v -30 a 150.65954,61.536996 0 0 1 -5.30469,-2.1875 z m 10,3.98242 v 30 a 150.65954,61.536998 0 0 0 5.30469,1.78516 v -30 a 150.65954,61.536996 0 0 1 -5.30469,-1.78516 z m 14,4.43555 v 30 a 150.65954,61.536998 0 0 0 5.30469,1.41602 v -30 a 150.65954,61.536996 0 0 1 -5.30469,-1.41602 z m 12,3.05078 v 30 a 150.65954,61.536998 0 0 0 5.30469,1.15821 v -30 a 150.65954,61.536996 0 0 1 -5.30469,-1.15821 z m 12,2.44922 v 30 a 150.65954,61.536998 0 0 0 5.30469,0.9336 v -30 a 150.65954,61.536996 0 0 1 -5.30469,-0.9336 z m 12,1.96289 v 30 a 150.65954,61.536998 0 0 0 5.30469,0.68946 v -30 a 150.65954,61.536996 0 0 1 -5.30469,-0.68946 z m 10,1.27149 v 29.99804 a 150.65954,61.536998 0 0 0 5.30469,0.51953 v -29.99804 a 150.65954,61.536996 0 0 1 -5.30469,-0.51953 z m 11.99805,1.10351 v 30 a 150.65954,61.536998 0 0 0 5.30664,0.35742 v -30 a 150.65954,61.536996 0 0 1 -5.30664,-0.35742 z m 14,0.77539 v 30 a 150.65954,61.536998 0 0 0 5.30469,0.16797 v -30 a 150.65954,61.536996 0 0 1 -5.30469,-0.16797 z"
           transform="scale(0.26458333)" />
        <g
           id="g5110"
           transform="rotate(-90)">
          <path
             style="color:#000000;fill:#806600;stroke-linecap:round;stroke-linejoin:round;-inkscape-stroke:none;paint-order:stroke markers fill"
             d="m -184.01172,203.72852 c -1.91007,0 -3.6237,0.96876 -4.96094,2.35351 -1.33723,1.38476 -2.40655,3.21762 -3.29492,5.39258 -1.77673,4.34992 -2.80664,10.1111 -2.80664,16.46875 0,6.35765 1.02991,12.11883 2.80664,16.46875 0.88837,2.17496 1.95769,4.00782 3.29492,5.39258 1.33724,1.38475 3.05087,2.35351 4.96094,2.35351 1.91007,0 3.62565,-0.96876 4.96289,-2.35351 1.33724,-1.38476 2.40656,-3.21762 3.29492,-5.39258 1.77673,-4.34992 2.80664,-10.1111 2.80664,-16.46875 0,-6.35765 -1.02991,-12.11883 -2.80664,-16.46875 -0.88836,-2.17496 -1.95768,-4.00782 -3.29492,-5.39258 -1.33724,-1.38475 -3.05282,-2.35351 -4.96289,-2.35351 z m 0,3.96875 c 0.59726,0 1.27207,0.27558 2.10742,1.14062 0.83536,0.86504 1.7218,2.28885 2.47657,4.13672 1.50952,3.69574 2.51171,9.04913 2.51171,14.96875 0,5.91962 -1.00219,11.27301 -2.51171,14.96875 -0.75477,1.84787 -1.64121,3.27168 -2.47657,4.13672 -0.83535,0.86504 -1.51016,1.14062 -2.10742,1.14062 -0.59726,0 -1.27011,-0.27558 -2.10547,-1.14062 -0.83535,-0.86504 -1.7218,-2.28885 -2.47656,-4.13672 -1.50953,-3.69574 -2.51172,-9.04913 -2.51172,-14.96875 0,-5.91962 1.00219,-11.27301 2.51172,-14.96875 0.75476,-1.84787 1.64121,-3.27168 2.47656,-4.13672 0.83536,-0.86504 1.50821,-1.14062 2.10547,-1.14062 z"
             id="path5106" />
          <path
             style="color:#000000;fill:#d4aa00;stroke-width:3.96875;stroke-linecap:round;stroke-linejoin:round;-inkscape-stroke:none;paint-order:stroke markers fill"
             d="m -174.93101,227.94327 a 9.0798559,22.229988 0 0 1 -9.07985,22.22999 9.0798559,22.229988 0 0 1 -9.07986,-22.22999 9.0798559,22.229988 0 0 1 9.07986,-22.22999 9.0798559,22.229988 0 0 1 9.07985,22.22999 z"
             id="path5108" />
        </g>
      </g>
    </g>
  </g>
</svg>
