<?xml version="1.0" encoding="UTF-8" standalone="no"?>
<!-- Created with Inkscape (http://www.inkscape.org/) -->

<svg
   width="450mm"
   height="110mm"
   viewBox="0 0 450 110"
   version="1.1"
   id="svg5"
   inkscape:version="1.1.2 (b8e25be833, 2022-02-05)"
   sodipodi:docname="logo.svg"
   xmlns:inkscape="http://www.inkscape.org/namespaces/inkscape"
   xmlns:sodipodi="http://sodipodi.sourceforge.net/DTD/sodipodi-0.dtd"
   xmlns="http://www.w3.org/2000/svg"
   xmlns:svg="http://www.w3.org/2000/svg">
  <sodipodi:namedview
     id="namedview7"
     pagecolor="#505050"
     bordercolor="#eeeeee"
     borderopacity="1"
     inkscape:pageshadow="0"
     inkscape:pageopacity="0"
     inkscape:pagecheckerboard="0"
     inkscape:document-units="mm"
     showgrid="false"
     width="100mm"
     inkscape:zoom="0.23563061"
     inkscape:cx="502.9058"
     inkscape:cy="152.78151"
     inkscape:window-width="1366"
     inkscape:window-height="715"
     inkscape:window-x="-8"
     inkscape:window-y="-8"
     inkscape:window-maximized="1"
     inkscape:current-layer="layer1"
     height="110mm" />
  <defs
     id="defs2">
    <inkscape:path-effect
       effect="skeletal"
       id="path-effect7104"
       is_visible="true"
       lpeversion="1"
       pattern="m -98.22577,151.72811 c -2.38647,1.37783 -5.44155,0.55922 -6.81938,-1.82726 -1.37785,-2.38646 -0.55923,-5.44156 1.82724,-6.81938 2.38648,-1.37782 5.441572,-0.55923 6.819406,1.82725 1.377819,2.38646 0.559212,5.44155 -1.827266,6.81939 z"
       copytype="single_stretched"
       prop_scale="0.35632383"
       scale_y_rel="false"
       spacing="0"
       normal_offset="0"
       tang_offset="0"
       prop_units="false"
       vertical_pattern="false"
       hide_knot="false"
       fuse_tolerance="0" />
    <inkscape:path-effect
       effect="skeletal"
       id="path-effect7098"
       is_visible="true"
       lpeversion="1"
       pattern="m -65.384449,-94.48748 c -1.377831,-2.386472 -0.559223,-5.441557 1.827249,-6.81939 2.386472,-1.37783 5.441558,-0.55922 6.819388,1.827251 1.37783,2.386473 0.559222,5.441557 -1.827249,6.819388 -2.386473,1.37783 -5.441558,0.559223 -6.819388,-1.827249 z"
       copytype="single_stretched"
       prop_scale="0.33381207"
       scale_y_rel="false"
       spacing="0"
       normal_offset="0"
       tang_offset="0"
       prop_units="false"
       vertical_pattern="false"
       hide_knot="false"
       fuse_tolerance="0" />
    <inkscape:path-effect
       effect="skeletal"
       id="path-effect6913"
       is_visible="true"
       lpeversion="1"
       pattern="m -16.258982,-127.70358 c 0,-2.75566 2.236478,-4.99214 4.992138,-4.99214 2.7556602,0 4.9921381,2.23648 4.9921381,4.99214 0,2.75566 -2.2364779,4.99214 -4.9921381,4.99214 -2.75566,0 -4.992138,-2.23648 -4.992138,-4.99214 z"
       copytype="single_stretched"
       prop_scale="0.32051395"
       scale_y_rel="false"
       spacing="0"
       normal_offset="0"
       tang_offset="0"
       prop_units="false"
       vertical_pattern="false"
       hide_knot="false"
       fuse_tolerance="0" />
    <inkscape:path-effect
       effect="skeletal"
       id="path-effect6450"
       is_visible="true"
       lpeversion="1"
       pattern="m -13.451799,-126.01927 c 0,-2.75566 2.236478,-4.99214 4.9921382,-4.99214 2.7556604,0 4.9921383,2.23648 4.9921383,4.99214 0,2.75566 -2.2364779,4.99214 -4.9921383,4.99214 -2.7556602,0 -4.9921382,-2.23648 -4.9921382,-4.99214 z"
       copytype="single_stretched"
       prop_scale="0.27735485"
       scale_y_rel="false"
       spacing="0"
       normal_offset="0"
       tang_offset="0"
       prop_units="false"
       vertical_pattern="false"
       hide_knot="false"
       fuse_tolerance="0" />
    <inkscape:path-effect
       effect="skeletal"
       id="path-effect6200"
       is_visible="true"
       lpeversion="1"
       pattern="m -13.451799,-126.01927 c 0,-2.75566 2.236478,-4.99214 4.9921382,-4.99214 2.7556604,0 4.9921383,2.23648 4.9921383,4.99214 0,2.75566 -2.2364779,4.99214 -4.9921383,4.99214 -2.7556602,0 -4.9921382,-2.23648 -4.9921382,-4.99214 z"
       copytype="single_stretched"
       prop_scale="0.29163029"
       scale_y_rel="false"
       spacing="0"
       normal_offset="0"
       tang_offset="0"
       prop_units="false"
       vertical_pattern="false"
       hide_knot="false"
       fuse_tolerance="0" />
  </defs>
  <g
     inkscape:label="Layer 1"
     inkscape:groupmode="layer"
     id="layer1">
    <g
       id="g1159"
       transform="matrix(1.3559892,0,0,1.3559892,6.5477375,-14.559872)">
      <circle
         style="fill:#4272b2;fill-opacity:1;stroke:none;stroke-width:13.2292;stroke-linecap:round;stroke-linejoin:round;stroke-miterlimit:4;stroke-dasharray:none"
         id="path1726"
         cx="44.573936"
         cy="48.148136"
         r="31.72117" />
      <path
         id="rect6080"
         style="fill:#ffffff;fill-opacity:1;stroke:none;stroke-width:7.99906;stroke-linecap:round;stroke-linejoin:round;stroke-miterlimit:4;stroke-dasharray:none"
         d="m 39.648884,43.52071 c 2.906565,-0.77882 5.873742,0.93404 6.652551,3.84059 l 3.953881,14.75609 13.77186,-3.69016 c 2.906563,-0.77881 5.873442,0.93411 6.652255,3.84068 l 3.163038,11.80461 c 0.778812,2.90657 -0.934121,5.87344 -3.840683,6.65225 L 50.98316,85.8208 c -2.906561,0.77881 -5.873438,-0.93411 -6.65225,-3.84068 L 41.167872,70.1755 c -0.04447,-0.16597 -0.07983,-0.33232 -0.108273,-0.49827 -0.05831,-0.15793 -0.110903,-0.3197 -0.155368,-0.48565 L 35.808205,50.17296 c -0.778809,-2.90656 0.934114,-5.87344 3.840679,-6.65225 z" />
      <path
         style="fill:#000000;stroke:none;stroke-width:0.264583px;stroke-linecap:butt;stroke-linejoin:miter;stroke-opacity:1"
         d="m 50.25531,62.117323 c -0.02229,0.002 -0.04489,-0.0088 -0.0693,-0.0324 0,0 0,0 0,0 -0.023,-0.02226 -0.04701,-0.05593 -0.07207,-0.100681 v 0 0 0 C 50.064824,61.89658 50.011374,61.76579 49.953301,61.59456 v 0 C 49.841734,61.265608 49.711709,60.783349 49.55772,60.166864 v 0 c -0.244506,-0.978715 -0.671647,-2.827241 -1.150998,-4.598762 v 0 c -0.412921,-1.522819 -0.968829,-3.435399 -1.742267,-5.278949 v 0 c -0.584796,-1.358105 -1.286382,-2.871431 -2.337611,-3.885598 v 0 c -0.636439,-0.629981 -1.398544,-1.174973 -2.240418,-1.5117 -0.732891,-0.23805 -1.496293,-0.420043 -1.888013,-0.136791 -0.878976,0.306553 -1.435328,1.458496 -1.887467,2.746636 v 0 c -0.416111,1.363217 -0.533673,2.866518 -0.632082,4.523883 0.07046,1.438772 0.214671,2.893463 0.425411,4.371157 0.662999,4.648914 1.951131,9.233839 3.188289,13.248618 1.794013,5.938965 3.380384,10.182509 5.193434,14.084445 v 0 c 0.364094,0.372386 1.055369,0.562666 1.687036,0.728596 v 0 c 0.916008,0.259505 1.881845,0.390294 2.63631,0.479064 v 0 c 0.98089,0.114287 1.775761,0.169171 2.347295,0.228441 v 10e-7 h 1e-6 c 0.320838,0.03325 0.571654,0.06669 0.746585,0.105477 v 0 c 0,0 0,0 0,0 0.09128,0.02038 0.162338,0.04232 0.212039,0.06621 v 0 c 0,0 0,0 0,0 0.02873,0.04148 0.04957,0.06275 0.0636,0.07363 0,0 1e-6,0 1e-6,0 0.01365,0.01059 0.02089,0.0112 0.02232,0.01119 0,0 0,0 0,0 0,0 0,0 0,0 1.59e-4,0 1.34e-4,5e-6 1.34e-4,5e-6 0,0 2.6e-5,-10e-7 -1.3e-4,3.4e-5 0,0 0,0 0,0 0,0 0,0 0,0 -0.0014,3.09e-4 -0.0084,0.0025 -0.0195,0.01567 0,0 0,1e-6 0,1e-6 -0.01146,0.01355 -0.02743,0.03863 -0.04698,0.08491 0,0 0,0 0,0 v 0 c -0.04472,0.03338 -0.111552,0.06835 -0.200378,0.104528 0,0 0,0 0,0 v 0 c -0.168631,0.06891 -0.415792,0.141725 -0.738317,0.212636 h -10e-7 v 0 c -0.560168,0.123234 -1.399287,0.251476 -2.422908,0.304539 v 0 c -0.802611,0.04275 -1.83494,0.0468 -2.93464,-0.124944 v 0 c -0.802559,-0.1413 -1.81891,-0.430325 -2.764927,-1.15049 v 0 c -2.19579,-3.762472 -4.2518,-8.331362 -6.357265,-14.385852 -1.398726,-4.087187 -2.789685,-8.819483 -3.489426,-13.792465 -0.221428,-1.573665 -0.368801,-3.133461 -0.435017,-4.682687 0.09947,-1.769155 0.284654,-3.553398 0.82222,-5.326621 v 0 c 0.476806,-1.766473 1.620327,-3.480615 3.485301,-4.39532 1.499888,-0.558154 2.944799,-0.320057 4.017184,0.222537 1.193799,0.543275 2.198811,1.325357 2.993285,2.208392 v 0 c 1.351418,1.527035 2.085559,3.31449 2.575647,4.81067 v 0 c 0.698946,2.067347 1.097958,4.080277 1.348191,5.695981 v 0 c 0.309958,1.993021 0.431982,3.672321 0.45609,4.81902 v 0 c 0.01361,0.645515 -0.0032,1.148748 -0.04223,1.498575 v 0 c -0.02028,0.181768 -0.04649,0.321499 -0.07795,0.418025 v 0 0 0 c -0.01601,0.04905 -0.03333,0.0868 -0.0519,0.113095 0,0 0,10e-7 0,10e-7 -0.01971,0.02779 -0.04004,0.04263 -0.06236,0.04467 z"
         id="path6198"
         inkscape:path-effect="#path-effect6200"
         inkscape:original-d="m 50.255316,62.11739 c 0,0 -1.073121,-12.36578 -5.036984,-16.55697 -1.358501,-1.43641 -3.763286,-2.84381 -5.56945,-2.03971 -2.788271,1.24133 -3.237575,5.4492 -3.413535,8.49623 0.510745,11.16617 6.358638,26.19953 9.544423,32.28261 2.174149,1.81479 8.42155,1.12287 8.42155,1.12287"
         sodipodi:nodetypes="caaccc" />
      <path
         style="fill:#000000;stroke:none;stroke-width:0.264583px;stroke-linecap:butt;stroke-linejoin:miter;stroke-opacity:1"
         d="m 50.430214,61.95346 c -0.0084,-0.02154 -0.0087,-0.04544 -0.0013,-0.07288 0,0 0,0 0,0 0.0069,-0.02528 0.02048,-0.05303 0.0407,-0.08318 0,0 0,0 0,0 0.03985,-0.05942 0.105285,-0.128006 0.195516,-0.205115 v 0 -10e-7 c 0.174853,-0.149306 0.44215,-0.329994 0.796222,-0.536066 v 0 c 0.644052,-0.37487 1.595962,-0.845224 2.789647,-1.338105 v 0 c 1.565126,-0.656721 4.242408,-1.743683 7.112538,-1.896811 v 0 c 1.472303,-0.07675 3.2321,-0.139903 5.031694,0.120492 v 0 c 1.619118,0.211011 3.426476,0.831192 4.890303,2.206069 0.0836,0.08614 0.165102,0.173665 0.244548,0.262506 1.626425,1.818761 2.291081,4.075057 2.521181,6.026085 0.32958,2.459724 0.256322,4.63349 0.360851,6.489926 0.150036,2.832769 -0.93207,5.046839 -1.897061,6.310783 -1.307063,1.288351 -2.105459,1.90789 -2.294088,1.752671 -0.0059,-0.0055 -0.0059,-0.0056 -0.0059,-0.0055 4e-6,4e-6 -4.3e-5,2.7e-5 -0.0056,-0.0058 -0.160807,-0.188008 0.302905,-1.122779 1.188557,-2.528481 0.56372,-1.257178 1.142984,-3.184624 0.773452,-5.287656 -0.29916,-1.976503 -0.366988,-4.164788 -0.750878,-6.319134 -0.328889,-1.665727 -0.827096,-3.448278 -1.912805,-4.562366 -0.05354,-0.05494 -0.108416,-0.108197 -0.164673,-0.159723 -0.78659,-0.839891 -2.098642,-1.256408 -3.383442,-1.521058 v 0 c -1.458318,-0.273077 -3.101728,-0.28816 -4.559365,-0.320841 v 0 c -2.231977,-0.07169 -5.051193,0.689514 -6.642017,1.039437 v 0 c -1.250358,0.279655 -2.222572,0.500462 -2.970434,0.630281 v 0 c -0.398046,0.0691 -0.715217,0.108937 -0.942674,0.113768 h -10e-7 v 0 c -0.117829,0.0025 -0.211895,-0.0043 -0.280915,-0.02121 0,0 0,0 0,0 -0.03507,-0.0086 -0.06372,-0.01978 -0.08579,-0.03367 0,0 0,0 0,0 -0.02388,-0.01516 -0.03982,-0.03285 -0.04821,-0.05439 z"
         id="path6448"
         inkscape:path-effect="#path-effect6450"
         inkscape:original-d="m 50.430113,61.9535 c 0,0 7.175511,-2.84677 10.951773,-2.90323 3.057105,-0.0457 6.753506,-0.0606 8.932402,2.08423 2.91627,2.87071 2.54885,7.84024 2.977468,11.90987 0.517876,4.9171 -3.076715,7.93991 -3.076715,7.93991"
         sodipodi:nodetypes="caasc" />
      <path
         style="fill:#ffffff;stroke:none;stroke-width:0.264583px;stroke-linecap:butt;stroke-linejoin:miter;stroke-opacity:1"
         d="m 29.498107,46.6833 c -0.05748,0.881355 -2.996653,1.408015 -6.560654,1.175578 -3.564001,-0.232436 -6.409874,-1.136383 -6.352394,-2.017738 0.05748,-0.881355 2.996654,-1.408015 6.560655,-1.175579 3.564001,0.232437 6.409873,1.136384 6.352393,2.017739 z"
         id="path6911"
         inkscape:path-effect="#path-effect6913"
         inkscape:original-d="M 29.498107,46.6833 16.585062,45.84114" />
      <path
         style="fill:#ffffff;stroke:none;stroke-width:0.264583px;stroke-linecap:butt;stroke-linejoin:miter;stroke-opacity:1"
         d="m 60.289449,33.294033 c 1.953862,-0.07595 1.453846,1.308103 -1.116106,3.089407 -2.569953,1.781303 -6.241454,3.288639 -8.195315,3.36459 -1.953862,0.07595 -1.453845,-1.308104 1.116106,-3.089407 2.569954,-1.781304 6.241454,-3.28864 8.195315,-3.36459 z"
         id="path7094"
         inkscape:path-effect="#path-effect7098"
         inkscape:original-d="m 61.435794,33.65743 -11.604105,5.7272" />
      <path
         style="fill:#ffffff;stroke:none;stroke-width:0.264583px;stroke-linecap:butt;stroke-linejoin:miter;stroke-opacity:1"
         d="m 32.833075,34.292582 c -1.809116,-2.556217 -3.299922,-6.235862 -3.327694,-8.213499 -0.02779,-1.977657 1.417949,-1.508069 3.227061,1.04815 1.809118,2.55623 3.299937,6.235885 3.327711,8.213527 0.02777,1.977621 -1.417955,1.508047 -3.227078,-1.048178 z"
         id="path7100"
         inkscape:path-effect="#path-effect7104"
         inkscape:original-d="m 29.919157,24.90786 5.727204,11.6041" />
      <text
         xml:space="preserve"
         style="font-style:normal;font-weight:normal;font-size:59.851px;line-height:1.25;font-family:sans-serif;fill:#3a77dd;fill-opacity:1;stroke:none;stroke-width:1.49628"
         x="109.66235"
         y="71.118156"
         id="text8113"><tspan
           sodipodi:role="line"
           id="tspan8111"
           style="fill:#3a77dd;fill-opacity:1;stroke-width:1.49628"
           x="109.66235"
           y="71.118156">Link2U</tspan></text>
    </g>
  </g>
</svg>
