<?xml version="1.0" encoding="UTF-8" standalone="no"?>
<!-- Created with Inkscape (http://www.inkscape.org/) -->

<svg
   width="110mm"
   height="110mm"
   viewBox="0 0 110 110"
   version="1.1"
   id="svg5"
   inkscape:version="1.1.2 (b8e25be833, 2022-02-05)"
   sodipodi:docname="logo-mini.svg"
   xmlns:inkscape="http://www.inkscape.org/namespaces/inkscape"
   xmlns:sodipodi="http://sodipodi.sourceforge.net/DTD/sodipodi-0.dtd"
   xmlns="http://www.w3.org/2000/svg"
   xmlns:svg="http://www.w3.org/2000/svg">
  <sodipodi:namedview
     id="namedview7"
     pagecolor="#505050"
     bordercolor="#eeeeee"
     borderopacity="1"
     inkscape:pageshadow="0"
     inkscape:pageopacity="0"
     inkscape:pagecheckerboard="0"
     inkscape:document-units="mm"
     showgrid="false"
     width="110mm"
     inkscape:zoom="0.23563061"
     inkscape:cx="167.63527"
     inkscape:cy="152.78151"
     inkscape:window-width="1366"
     inkscape:window-height="715"
     inkscape:window-x="-8"
     inkscape:window-y="-8"
     inkscape:window-maximized="1"
     inkscape:current-layer="layer1"
     height="110mm" />
  <defs
     id="defs2">
    <inkscape:path-effect
       effect="skeletal"
       id="path-effect7104"
       is_visible="true"
       lpeversion="1"
       pattern="m -126.64535,191.18181 c -3.23602,1.86832 -7.37868,0.75829 -9.247,-2.47775 -1.86835,-3.23601 -0.75831,-7.37869 2.47772,-9.247 3.23604,-1.86831 7.37871,-0.75831 9.24704,2.47773 1.8683,3.23601 0.75828,7.37868 -2.47776,9.24702 z"
       copytype="single_stretched"
       prop_scale="0.35632383"
       scale_y_rel="false"
       spacing="0"
       normal_offset="0"
       tang_offset="0"
       prop_units="false"
       vertical_pattern="false"
       hide_knot="false"
       fuse_tolerance="0" />
    <inkscape:path-effect
       effect="skeletal"
       id="path-effect7098"
       is_visible="true"
       lpeversion="1"
       pattern="m -82.112869,-142.68387 c -1.868324,-3.23603 -0.758301,-7.3787 2.47773,-9.24702 3.23603,-1.86833 7.378694,-0.7583 9.247016,2.47773 1.868323,3.23603 0.758299,7.37869 -2.47773,9.24702 -3.236031,1.86832 -7.378694,0.7583 -9.247016,-2.47773 z"
       copytype="single_stretched"
       prop_scale="0.33381207"
       scale_y_rel="false"
       spacing="0"
       normal_offset="0"
       tang_offset="0"
       prop_units="false"
       vertical_pattern="false"
       hide_knot="false"
       fuse_tolerance="0" />
    <inkscape:path-effect
       effect="skeletal"
       id="path-effect6913"
       is_visible="true"
       lpeversion="1"
       pattern="m -15.499266,-187.72455 c 0,-3.73664 3.03264,-6.76929 6.7692847,-6.76929 3.7366455,0 6.7692854,3.03265 6.7692854,6.76929 0,3.73665 -3.0326399,6.76929 -6.7692854,6.76929 -3.7366447,0 -6.7692847,-3.03264 -6.7692847,-6.76929 z"
       copytype="single_stretched"
       prop_scale="0.32051395"
       scale_y_rel="false"
       spacing="0"
       normal_offset="0"
       tang_offset="0"
       prop_units="false"
       vertical_pattern="false"
       hide_knot="false"
       fuse_tolerance="0" />
    <inkscape:path-effect
       effect="skeletal"
       id="path-effect6450"
       is_visible="true"
       lpeversion="1"
       pattern="m -11.692757,-185.44064 c 0,-3.73665 3.0326403,-6.76929 6.7692858,-6.76929 3.7366458,0 6.7692856,3.03264 6.7692856,6.76929 0,3.73664 -3.0326398,6.76929 -6.7692856,6.76929 -3.7366455,0 -6.7692858,-3.03265 -6.7692858,-6.76929 z"
       copytype="single_stretched"
       prop_scale="0.27735485"
       scale_y_rel="false"
       spacing="0"
       normal_offset="0"
       tang_offset="0"
       prop_units="false"
       vertical_pattern="false"
       hide_knot="false"
       fuse_tolerance="0" />
    <inkscape:path-effect
       effect="skeletal"
       id="path-effect6200"
       is_visible="true"
       lpeversion="1"
       pattern="m -11.692757,-185.44064 c 0,-3.73665 3.0326403,-6.76929 6.7692858,-6.76929 3.7366458,0 6.7692856,3.03264 6.7692856,6.76929 0,3.73664 -3.0326398,6.76929 -6.7692856,6.76929 -3.7366455,0 -6.7692858,-3.03265 -6.7692858,-6.76929 z"
       copytype="single_stretched"
       prop_scale="0.29163029"
       scale_y_rel="false"
       spacing="0"
       normal_offset="0"
       tang_offset="0"
       prop_units="false"
       vertical_pattern="false"
       hide_knot="false"
       fuse_tolerance="0" />
  </defs>
  <g
     inkscape:label="Layer 1"
     inkscape:groupmode="layer"
     id="layer1">
    <g
       id="g1295"
       transform="translate(-11.989517,-3.1744001e-4)">
      <circle
         style="fill:#4272b2;fill-opacity:1;stroke:none;stroke-width:17.9387;stroke-linecap:round;stroke-linejoin:round;stroke-miterlimit:4;stroke-dasharray:none"
         id="path1726"
         cx="66.989517"
         cy="50.728481"
         r="43.013565" />
      <path
         id="rect6080"
         style="fill:#ffffff;fill-opacity:1;stroke:none;stroke-width:10.8466;stroke-linecap:round;stroke-linejoin:round;stroke-miterlimit:4;stroke-dasharray:none"
         d="m 60.311196,44.453741 c 3.941271,-1.056072 7.964731,1.266548 9.020787,5.207798 l 5.36142,20.009099 18.674494,-5.003817 c 3.941268,-1.056058 7.964323,1.266643 9.020383,5.20792 l 4.28905,16.006924 c 1.05606,3.941278 -1.26666,7.964321 -5.20793,9.020379 l -25.789048,6.910166 c -3.941265,1.05605 -7.964319,-1.26665 -9.020379,-5.207925 L 62.370927,80.597348 C 62.310627,80.372295 62.262679,80.146726 62.22411,79.921699 62.14504,79.707548 62.073727,79.48819 62.013433,79.263163 L 55.103277,53.47412 c -1.056057,-3.941264 1.266648,-7.964321 5.207919,-9.020379 z" />
      <path
         style="fill:#000000;stroke:none;stroke-width:0.358772px;stroke-linecap:butt;stroke-linejoin:miter;stroke-opacity:1"
         d="m 74.693399,69.670589 c -0.01542,0.0014 -0.03096,-0.0018 -0.04712,-0.0095 -0.01503,-0.0072 -0.0304,-0.01841 -0.0461,-0.03349 -0.03113,-0.02992 -0.06364,-0.07527 -0.09754,-0.135615 0,0 0,0 0,0 v 0 c -0.06656,-0.118358 -0.138989,-0.295212 -0.217681,-0.52692 v 0 c -0.151223,-0.44527 -0.327481,-1.098637 -0.53623,-1.934174 v 0 C 73.417514,65.705387 72.837836,63.196678 72.18808,60.794897 v 0 C 71.628158,58.729544 70.874234,56.134994 69.825217,53.63405 v 0 c -0.793128,-1.842304 -1.744702,-3.895426 -3.170763,-5.271199 v 0 C 65.79145,47.508603 64.758046,46.769601 63.616475,46.313003 62.622682,45.99021 61.587519,45.743429 61.056353,46.127516 v 0 c -1.191882,0.41568 -1.946289,1.977702 -2.559384,3.724405 v 0 c -0.564243,1.848507 -0.723655,3.886967 -0.857097,6.134337 0.09554,1.950928 0.291085,3.923441 0.576838,5.927147 0.899016,6.30391 2.645717,12.521052 4.323299,17.965077 0,0 1e-6,3e-6 1e-6,3e-6 2.432658,8.053159 4.583762,13.807363 7.042241,19.098349 0.494176,0.505461 1.43263,0.76355 2.289901,0.988612 1.230654,0.352174 2.531628,0.529474 3.551112,0.649884 2.90965,0.14619 4.578492,0.3632 4.620377,0.65112 0,0 0,0 0,0 0,0 0,10e-6 0,10e-6 0,0 0,0 0,0 0,0 0,0 0,0 0,0 0,0 0,0 0,0 0,0 0,0 5.44e-4,0.006 5.05e-4,0.006 5.01e-4,0.006 -4e-6,-6e-5 3e-5,-1.2e-4 3.06e-4,0.006 0,0 0,0 0,0 0,0 0,0 0,0 0,0 0,1e-5 0,1e-5 0,0 0,0 0,0 0,0 10e-7,0 10e-7,0 0,0 0,0 0,0 2e-6,0.28964 -1.632705,0.62126 -4.617097,0.97326 -1.09312,0.0583 -2.50309,0.0642 -4.008403,-0.16838 -1.088895,-0.19144 -2.468209,-0.58326 -3.751978,-1.56049 -2.977475,-5.101874 -5.7654,-11.29724 -8.620385,-19.507052 0,0 -10e-7,-4e-6 -10e-7,-4e-6 C 57.149918,75.472715 55.263784,69.055738 54.314947,62.31239 54.0147,60.178552 53.814869,58.063518 53.725082,55.962816 c 0.134877,-2.398953 0.385987,-4.818367 1.11492,-7.22284 v 0 c 0.646544,-2.395317 2.197145,-4.719677 4.726031,-5.960009 2.033833,-0.756851 3.993118,-0.433995 5.447262,0.301757 1.618779,0.736674 2.981564,1.797168 4.058864,2.994555 v 0 c 1.833231,2.071475 2.828863,4.496361 3.493454,6.525871 v 0 c 0.947894,2.804462 1.488887,5.53501 1.828069,7.726371 v 0 c 0.420145,2.703151 0.585344,4.980308 0.617757,6.534613 v 0 c 0.0183,0.8749 -0.0046,1.556672 -0.05774,2.030248 v 0 c -0.02758,0.24599 -0.06318,0.434957 -0.105917,0.565322 v 0 c 0,0 0,0 0,0 -0.02172,0.06617 -0.0452,0.11705 -0.07038,0.15242 -0.01269,0.01782 -0.02579,0.03168 -0.0393,0.04155 -0.01452,0.01054 -0.02927,0.0165 -0.0447,0.01791 z"
         id="path6198"
         inkscape:path-effect="#path-effect6200"
         inkscape:original-d="m 74.693403,69.670638 c 0,0 -1.45514,-16.767864 -6.830096,-22.451073 -1.842112,-1.947756 -5.102975,-3.856175 -7.552114,-2.765824 -3.780865,1.68323 -4.390116,7.389056 -4.628716,11.520796 0.692564,15.141206 8.622244,35.52628 12.942134,43.77487 2.948123,2.460833 11.419531,1.522603 11.419531,1.522603"
         sodipodi:nodetypes="caaccc" />
      <path
         style="fill:#000000;stroke:none;stroke-width:0.358772px;stroke-linecap:butt;stroke-linejoin:miter;stroke-opacity:1"
         d="m 74.9305,69.448376 c -0.0112,-0.02871 -0.01171,-0.06047 -0.0022,-0.09694 0,0 0,-1e-6 0,-1e-6 0.009,-0.03419 0.02713,-0.07175 0.05427,-0.112577 0,0 0,0 0,0 0.05346,-0.08042 0.141691,-0.173299 0.263611,-0.277767 v 0 0 c 0.236238,-0.20226 0.59806,-0.447171 1.077762,-0.726592 v 0 c 0.872561,-0.508295 2.163233,-1.146342 3.782355,-1.815119 v 0 c 1.346137,-0.556502 3.02031,-1.177049 4.873882,-1.699576 v 0 c 1.357363,-0.389353 2.993481,-0.78483 4.775809,-0.874636 v 0 h 3e-6 v 0 c 1.996434,-0.104073 4.382697,-0.189702 6.822925,0.163394 v 0 c 2.195509,0.286133 4.646263,1.127094 6.631193,2.991412 0.11326,0.116712 0.22369,0.23529 0.33133,0.355655 2.20561,2.466275 3.10694,5.525932 3.41896,8.171606 0.44691,3.335366 0.34757,6.282969 0.48931,8.800272 v 0 c 0.22934,3.810486 -1.22823,6.797348 -2.53822,8.511186 v 0 c 0,0 0,10e-7 0,10e-7 v 0 c -0.73677,0.963767 -1.46575,1.6184 -2.01391,2.003177 v 0 c -0.29611,0.207914 -0.54611,0.342309 -0.73841,0.410798 v 0 c -0.10036,0.03639 -0.18381,0.05456 -0.25018,0.05537 v 0 c 0,0 0,0 0,0 -0.0619,-0.03352 -0.099,-0.04749 -0.12093,-0.05284 -0.0213,-0.0052 -0.0282,-0.0021 -0.0294,-0.0013 0,0 0,0 0,0 0,0 0,0 0,0 0,0 0,0 0,0 0,0 0,0 0,0 0,0 0,0 0,0 0,0 0,0 0,0 0,0 0,0 0,0 -1.4e-4,8.1e-5 -1.2e-4,6.4e-5 -1.2e-4,6.4e-5 0,0 -2e-5,1.2e-5 8e-5,-1.05e-4 0,0 0,0 0,0 0,0 0,0 0,0 0,0 0,0 0,0 0,0 0,0 0,0 0,0 0,0 0,0 0,0 0,0 0,0 0,0 0,0 0,0 9.4e-4,-0.0011 0.005,-0.0073 0.003,-0.02912 -0.002,-0.02245 -0.0109,-0.06132 -0.0359,-0.12781 0,0 0,0 0,0 v -1e-6 c 0.007,-0.06376 0.0282,-0.142332 0.0629,-0.233884 v -1e-6 c 0.0693,-0.178355 0.19306,-0.417735 0.35316,-0.709413 v 0 c 0.29744,-0.542228 0.74402,-1.311861 1.18019,-2.279464 v 0 c 0,0 0,0 0,0 0.7647,-1.704047 1.56523,-4.337809 1.08933,-7.226632 v 0 c -0.40566,-2.680109 -0.49764,-5.647399 -1.01819,-8.568675 -0.44599,-2.258795 -1.12159,-4.676021 -2.59393,-6.186704 -0.0726,-0.07443 -0.1469,-0.146587 -0.22312,-0.216398 -1.066601,-1.138879 -2.845726,-1.703671 -4.587902,-2.062533 v 0 C 94.010695,67.242935 91.782256,67.222485 89.80571,67.178174 v 0 h -1e-6 v 0 c -1.363275,-0.04221 -2.843808,0.19353 -4.169833,0.416632 v 0 c -1.741469,0.299596 -3.489495,0.691748 -4.841987,0.994002 h -10e-7 c -1.695975,0.379338 -3.014599,0.678747 -4.027962,0.854395 v 0 c -0.539419,0.0935 -0.968971,0.147238 -1.276635,0.1534 v 0 h -10e-7 c -0.159393,0.0033 -0.286496,-0.0063 -0.379565,-0.02947 0,0 0,0 0,0 -0.0473,-0.01179 -0.08589,-0.02712 -0.115517,-0.0461 0,0 0,0 0,0 -0.03155,-0.02032 -0.05263,-0.04393 -0.06382,-0.07263 z"
         id="path6448"
         inkscape:path-effect="#path-effect6450"
         inkscape:original-d="m 74.930426,69.448405 c 0,0 9.729916,-3.860189 14.850486,-3.936749 4.145401,-0.06197 9.157681,-0.08217 12.112238,2.826194 3.95443,3.892652 3.45622,10.631281 4.03742,16.149655 0.70223,6.667534 -4.172,10.766432 -4.172,10.766432"
         sodipodi:nodetypes="caasc" />
      <path
         style="fill:#ffffff;stroke:none;stroke-width:0.358772px;stroke-linecap:butt;stroke-linejoin:miter;stroke-opacity:1"
         d="m 46.546852,48.742179 c -0.07794,1.195106 -4.06343,1.909253 -8.896176,1.594072 -4.832747,-0.315181 -8.691719,-1.540926 -8.613777,-2.736032 0.07794,-1.19511 4.06343,-1.909253 8.896177,-1.594072 4.832746,0.315181 8.691718,1.540922 8.613776,2.736032 z"
         id="path6911"
         inkscape:path-effect="#path-effect6913"
         inkscape:original-d="m 46.546852,48.742179 -17.50995,-1.14196" />
      <path
         style="fill:#ffffff;stroke:none;stroke-width:0.358772px;stroke-linecap:butt;stroke-linejoin:miter;stroke-opacity:1"
         d="m 88.299579,30.586477 c 2.649416,-0.102989 1.971401,1.773775 -1.513428,4.189203 -3.484827,2.41543 -8.463344,4.45936 -11.112758,4.562347 -2.649415,0.102989 -1.971398,-1.773773 1.513428,-4.189203 3.484829,-2.415427 8.463344,-4.45936 11.112758,-4.562347 z"
         id="path7094"
         inkscape:path-effect="#path-effect7098"
         inkscape:original-d="M 89.854011,31.07924 74.11897,38.845261" />
      <path
         style="fill:#ffffff;stroke:none;stroke-width:0.358772px;stroke-linecap:butt;stroke-linejoin:miter;stroke-opacity:1"
         d="m 51.069028,31.940493 c -2.453135,-3.466195 -4.474654,-8.455759 -4.512311,-11.13741 -0.03768,-2.681681 1.92272,-2.044926 4.375859,1.421282 2.453143,3.46622 4.474677,8.455791 4.51234,11.137453 0.03766,2.681624 -1.922734,2.04489 -4.375888,-1.421325 z"
         id="path7100"
         inkscape:path-effect="#path-effect7104"
         inkscape:original-d="m 47.117791,19.214917 7.766027,15.735034" />
    </g>
  </g>
</svg>
